<svg width="234" height="161" viewBox="0 0 234 161" fill="none" xmlns="http://www.w3.org/2000/svg">
<g opacity="0.21">
<path d="M186.788 142.854H16.2617V144.169H186.788V142.854Z" fill="url(#paint0_linear_7334_16659)"/>
<path d="M186.788 145.005H16.2617V146.32H186.788V145.005Z" fill="url(#paint1_linear_7334_16659)"/>
<path d="M52.709 142.854H51.3945V148.351H52.709V142.854Z" fill="url(#paint2_linear_7334_16659)"/>
<path d="M21.4004 142.854H20.0859V148.351H21.4004V142.854Z" fill="url(#paint3_linear_7334_16659)"/>
<path d="M84.1377 142.854H82.8232V148.351H84.1377V142.854Z" fill="url(#paint4_linear_7334_16659)"/>
<path d="M115.566 142.854H114.252V148.351H115.566V142.854Z" fill="url(#paint5_linear_7334_16659)"/>
<path d="M146.875 142.854H145.561V148.351H146.875V142.854Z" fill="url(#paint6_linear_7334_16659)"/>
<path d="M178.543 142.974H177.229V148.471H178.543V142.974Z" fill="url(#paint7_linear_7334_16659)"/>
</g>
<path opacity="0.35" d="M14.8279 149.068H195.273L195.631 149.546H14.5889L14.8279 149.068Z" fill="url(#paint8_linear_7334_16659)"/>
<path opacity="0.35" d="M14.8279 148.113H195.273L195.631 148.232H14.5889L14.8279 148.113Z" fill="url(#paint9_linear_7334_16659)"/>
<path d="M174.957 31.2415C175.287 31.2415 175.554 30.974 175.554 30.644C175.554 30.314 175.287 30.0465 174.957 30.0465C174.627 30.0465 174.359 30.314 174.359 30.644C174.359 30.974 174.627 31.2415 174.957 31.2415Z" fill="url(#paint10_linear_7334_16659)"/>
<path d="M208.178 58.2486C197.304 73.7836 141.617 34.8266 152.252 19.2916C162.888 3.75658 184.278 0.0520768 199.694 10.8071C215.109 21.6816 218.814 42.8331 208.178 58.2486Z" fill="#AAC8FF"/>
<path opacity="0.28" d="M168.623 30.8831C157.51 46.1791 141.258 34.7071 152.132 19.2916C163.007 3.75658 184.158 0.0520773 199.574 10.8071C215.109 21.6816 187.146 5.66858 168.623 30.8831Z" fill="white"/>
<path d="M232.437 78.8025C232.078 79.4 231.361 79.7585 230.405 79.9975C222.638 81.6705 197.901 69.9595 171.492 51.3175C145.082 32.6755 125.126 13.675 124.17 5.78798C124.05 4.83198 124.17 4.11498 124.528 3.39798C124.648 3.27848 124.648 3.15898 124.767 3.15898C129.308 -1.86002 156.435 10.329 185.593 30.883C214.751 51.437 235.663 72.3495 232.556 78.3245C232.556 78.683 232.556 78.683 232.437 78.8025Z" fill="#232C64"/>
<path d="M232.915 78.0855C232.795 78.205 232.676 78.3245 232.676 78.444C232.078 79.0415 231.242 79.5195 230.405 79.8781C222.638 81.551 197.901 69.84 171.492 51.198C145.082 32.556 125.126 13.5555 124.17 5.66854C124.17 4.71254 124.409 3.87604 124.767 3.15904C124.887 3.03954 124.887 2.92004 125.006 2.80054C130.384 -5.08646 158.944 5.42954 188.819 26.2225C218.694 47.0155 238.412 70.318 232.915 78.0855Z" fill="#E6E7E8"/>
<path d="M232.437 78.8025C232.078 79.4 231.361 79.7585 230.405 79.9975C222.638 81.6705 197.901 69.9595 171.492 51.3175C145.082 32.6755 125.126 13.675 124.17 5.78798C124.05 4.83198 124.17 4.11498 124.528 3.39798C124.648 3.27848 124.648 3.15898 124.767 3.15898C129.308 -1.86002 156.435 10.329 185.593 30.883C214.751 51.437 235.663 72.3495 232.556 78.3245C232.556 78.683 232.556 78.683 232.437 78.8025Z" fill="#BCBEC0"/>
<path d="M230.764 78.4441C230.405 78.8026 229.808 79.2806 228.971 79.4001C221.801 80.5951 197.901 68.8841 171.97 50.7201C146.038 32.5561 126.679 14.3921 125.245 6.98307C125.126 6.14657 125.126 5.42957 125.604 4.95157C125.604 4.83207 125.723 4.83207 125.843 4.71257C130.145 0.41057 155.957 12.7191 184.637 32.5561C213.317 52.3931 233.751 72.5886 231.242 78.0856C230.883 78.3246 230.764 78.4441 230.764 78.4441Z" fill="#AEAEAF"/>
<path d="M195.87 57.0536C194.436 58.8461 184.876 54.3051 174.121 46.8961C163.247 39.3676 155.718 31.9586 157.033 30.1661C158.467 28.3736 168.027 32.9146 178.782 40.3236C189.417 47.6131 197.185 55.1416 195.87 57.0536Z" fill="url(#paint11_linear_7334_16659)"/>
<path d="M182.964 6.98303L184.398 7.93903C184.398 7.93903 188.461 7.22203 191.09 8.17803C190.612 8.17803 188.222 6.62453 182.964 6.98303Z" fill="white"/>
<path d="M204.115 4.95154L199.693 10.807L200.291 11.4045L204.115 4.95154Z" fill="#AEAEAF"/>
<path d="M196.587 56.217C196.587 56.456 196.586 56.5755 196.467 56.8145C195.033 58.607 183.322 55.261 172.328 47.852C161.334 40.3235 155.837 31.361 157.032 29.5685C157.032 29.449 157.152 29.449 157.152 29.3295C158.944 27.8955 168.504 32.6755 179.02 39.8455C189.058 46.5375 196.228 53.588 196.587 56.217Z" fill="url(#paint12_linear_7334_16659)"/>
<path opacity="0.21" d="M190.97 27.776C190.97 28.3735 190.97 28.732 190.851 29.3295C190.731 29.927 190.612 30.2855 190.492 30.883C190.253 31.839 189.775 32.795 189.417 33.751L187.744 34.946C187.146 35.5435 186.668 36.0215 186.071 36.4995L184.398 38.053C183.322 39.1285 182.127 40.0845 181.052 41.16C182.127 40.0845 183.083 38.8895 184.278 37.9335L185.832 36.141C186.429 35.5435 186.907 35.0655 187.505 34.5875L189.178 33.3925C189.417 33.034 189.536 32.4365 189.895 31.9585C190.014 31.6 190.253 31.0025 190.492 30.5245C190.731 29.688 190.97 28.732 190.97 27.776Z" fill="#303030"/>
<path opacity="0.21" d="M162.649 10.4485C161.215 9.85102 159.901 9.37302 158.467 8.89502C157.033 8.53652 155.599 8.05852 154.165 7.70002C152.731 7.46102 151.297 7.10252 149.743 6.98302C148.19 6.86352 146.875 6.86352 145.322 7.10252L145.441 6.98302V9.49252L152.014 19.172L155.24 24.0715L158.467 28.971L155.121 24.0715L151.775 19.172L145.202 9.49252V6.98302V6.86352H145.322C146.875 6.62452 148.429 6.62452 149.743 6.74402C151.297 6.86352 152.611 7.10252 154.165 7.46102C155.599 7.70002 157.033 8.17802 158.467 8.65602C159.901 9.13402 161.335 9.73152 162.649 10.4485Z" fill="#303030"/>
<path opacity="0.21" d="M213.436 45.9401C214.99 47.1351 216.185 48.6886 217.619 50.1226C218.814 51.6761 220.128 53.2296 221.204 54.6636C222.279 56.3366 223.235 58.0096 224.072 59.8021C224.908 61.5946 225.625 63.3871 225.984 65.2991L225.864 65.1796C225.864 65.2991 225.864 64.9406 225.864 65.4186C225.864 65.7771 225.864 65.5381 225.864 65.6576H225.745V65.5381C225.386 63.6261 224.669 61.8336 223.833 60.0411C222.996 58.2486 222.04 56.5756 220.965 54.9026C219.889 53.2296 218.694 51.6761 217.38 50.2421C216.185 48.6886 214.87 47.2546 213.436 45.9401Z" fill="#303030"/>
<path opacity="0.21" d="M174.24 48.9275C174.001 49.047 173.882 49.1665 173.523 49.286C173.284 49.4055 173.165 49.525 172.806 49.6445C172.448 49.8835 171.85 50.242 171.253 50.3615C170.894 50.3615 170.416 50.3615 170.058 50.242C170.416 50.242 170.894 50.1225 171.253 50.1225C171.611 49.8835 172.209 49.525 172.687 49.4055C172.926 49.286 173.284 49.1665 173.404 49.1665C173.643 49.047 173.882 49.047 174.24 48.9275Z" fill="#303030"/>
<path opacity="0.21" d="M192.285 57.2925C193.122 58.846 193.839 60.3995 194.556 61.8335C194.914 62.67 195.273 63.387 195.512 64.2235C195.751 65.06 196.229 65.777 196.468 66.6135C196.826 67.211 197.304 67.5695 197.543 68.167C197.185 67.8085 196.707 67.211 196.348 66.733C195.99 65.8965 195.631 65.1795 195.273 64.343C194.914 63.5065 194.556 62.7895 194.197 61.953C193.48 60.28 192.763 58.846 192.285 57.2925Z" fill="#303030"/>
<path opacity="0.21" d="M156.554 31.3611C155.598 31.2416 154.642 31.1221 153.447 31.1221C152.491 31.0026 151.535 30.8831 150.34 30.7636C149.384 30.6441 148.428 30.5246 147.233 30.4051C146.277 30.2856 145.321 30.1661 144.126 30.0466C143.529 29.8076 143.051 29.4491 142.453 29.2101C143.051 29.4491 143.529 29.5686 144.126 29.9271C145.082 30.0466 146.038 30.1661 147.233 30.2856C148.189 30.4051 149.145 30.5246 150.34 30.6441C151.296 30.7636 152.252 30.8831 153.447 31.0026C154.642 31.1221 155.598 31.2416 156.554 31.3611Z" fill="#303030"/>
<path opacity="0.21" d="M156.913 29.6881L152.85 26.5811L148.787 23.4741L140.9 17.3796L133.013 11.2851C130.384 9.25359 127.755 7.10259 125.245 5.19059L124.528 3.63708L125.245 5.07109C127.874 6.98309 130.503 9.13409 133.132 11.1656L141.019 17.2601L148.906 23.3546L152.73 26.4616L156.913 29.6881Z" fill="#303030"/>
<path opacity="0.21" d="M195.512 57.2925L199.814 59.9215L204.116 62.5505L212.839 67.928L221.443 73.3055C224.311 75.098 227.299 76.8905 230.047 78.683C227.179 76.8905 224.192 75.2175 221.324 73.425L212.6 68.0475L203.996 62.67L199.694 59.9215L195.512 57.2925Z" fill="#303030"/>
<mask id="mask0_7334_16659" style="mask-type:luminance" maskUnits="userSpaceOnUse" x="180" y="9" width="23" height="24">
<path d="M180.813 20.9646C180.813 20.9646 195.511 30.5246 197.184 32.4366C197.423 32.4366 202.562 27.8956 202.562 27.8956L201.845 15.4676L200.65 12.0021L196.228 9.73157L187.266 11.2851L180.454 19.6501L180.813 20.9646Z" fill="white"/>
</mask>
<g mask="url(#mask0_7334_16659)">
<g opacity="0.32">
<path d="M196.587 23.4741L195.989 22.2791L199.335 17.3796C200.411 15.7066 200.052 13.5556 198.379 12.3606C196.706 11.2851 194.555 11.6436 193.36 13.3166L190.014 18.2161L188.58 18.0966L189.536 20.1281C189.536 21.2036 190.134 22.1596 190.97 22.8766C191.926 23.5936 193.002 23.5936 194.197 23.2351L196.587 23.4741Z" fill="#01396B"/>
<path d="M188.938 26.3421L186.787 21.3231L192.045 21.4426L194.196 26.4616L188.938 26.3421Z" fill="#01396B"/>
<path d="M192.882 25.9835C192.882 25.9835 189.536 31.0025 195.75 30.883L192.882 25.9835Z" fill="#303030"/>
<path d="M195.75 31.2415C193.958 31.2415 192.643 30.883 192.165 29.8075C191.329 28.254 192.763 26.103 192.763 25.9835L193.121 26.2225C193.121 26.2225 191.687 28.254 192.524 29.5685C192.882 30.405 194.077 30.7635 195.87 30.644V31.2415C195.87 31.2415 195.87 31.2415 195.75 31.2415Z" fill="#01396B"/>
<path d="M197.662 31.3611H196.945C196.825 31.4806 196.706 31.4806 196.706 31.4806C196.467 31.4806 196.108 31.3611 196.108 30.8831C196.108 30.6441 196.228 30.2856 196.706 30.2856C196.825 30.2856 196.945 30.2856 197.064 30.4051H197.781C197.662 30.0466 197.184 29.6881 196.706 29.6881C196.108 29.6881 195.63 30.2856 195.75 30.8831C195.869 31.6001 196.347 31.9586 196.945 31.8391C197.064 32.1976 197.542 31.7196 197.662 31.3611Z" fill="#01396B"/>
<path d="M187.982 22.5181C187.982 22.5181 184.517 27.4176 182.485 21.5621L187.982 22.5181Z" fill="#303030"/>
<path d="M184.995 24.5496C184.875 24.5496 184.875 24.5496 184.756 24.5496C183.68 24.4301 182.844 23.3546 182.127 21.4426L182.485 21.3231C183.083 22.9961 183.919 23.9521 184.756 24.0716C186.309 24.1911 187.624 22.2791 187.624 22.2791L187.982 22.5181C188.102 22.6376 186.668 24.5496 184.995 24.5496Z" fill="#01396B"/>
<path d="M181.291 20.0085L181.41 20.7255C181.41 20.845 181.41 20.9645 181.41 21.084C181.529 21.323 181.768 21.4425 182.127 21.4425C182.366 21.323 182.486 21.084 182.486 20.7255C182.486 20.606 182.366 20.4865 182.247 20.4865L182.127 19.7695C182.485 19.7695 182.964 20.128 183.083 20.606C183.203 21.2035 182.963 21.801 182.366 22.04C181.768 22.279 181.171 21.9205 180.932 21.2035C180.693 20.606 180.813 20.2475 181.291 20.0085Z" fill="#01396B"/>
<path d="M183.441 32.3171L182.844 31.7196L188.46 23.4741L189.297 23.8326L183.441 32.3171Z" fill="#01396B"/>
<path d="M185.831 33.8706L185.114 33.3926L190.85 24.9081L191.567 25.5056L185.831 33.8706Z" fill="#01396B"/>
</g>
</g>
<path opacity="0.48" d="M178.578 49.6151C178.903 49.118 177.107 47.3677 174.567 45.7055C172.026 44.0433 169.703 43.0988 169.378 43.5959C169.053 44.0929 170.849 45.8433 173.389 47.5055C175.929 49.1676 178.252 50.1121 178.578 49.6151Z" fill="white"/>
<path d="M157.032 30.0466C157.032 29.8076 157.032 29.4491 157.271 29.3296C157.391 29.0906 157.63 29.0906 157.988 28.9711C158.586 28.8516 159.064 28.8516 159.661 28.9711C160.737 29.0906 161.693 29.5686 162.768 29.8076C164.68 30.6441 166.592 31.4806 168.624 32.5561C172.328 34.5876 176.033 36.8581 179.618 39.3676C183.083 41.7576 186.549 44.2671 189.895 47.1351C190.731 47.8521 191.568 48.5691 192.285 49.4056C193.002 50.1226 193.838 50.9591 194.555 51.7956C195.272 52.6321 195.75 53.4686 196.348 54.4246C196.587 54.7831 196.706 55.3806 196.945 55.9781C196.945 56.2171 196.945 56.5756 196.945 56.8146C196.945 57.0536 196.826 57.4121 196.587 57.5316C196.826 57.4121 196.826 57.1731 196.945 56.8146C196.945 56.5756 196.945 56.2171 196.945 55.9781C196.826 55.3806 196.706 55.0221 196.348 54.5441C195.75 53.5881 195.153 52.8711 194.436 52.0346C193.002 50.4811 191.329 49.1666 189.775 47.7326C188.102 46.2986 186.429 45.1036 184.756 43.9086C183.083 42.7136 181.291 41.3991 179.498 40.3236C177.706 39.1286 176.033 37.9336 174.24 36.8581C172.448 35.7826 170.655 34.5876 168.863 33.5121C167.07 32.4366 165.158 31.4806 163.127 30.6441C162.171 30.2856 161.215 29.8076 160.02 29.5686C159.422 29.4491 158.944 29.4491 158.466 29.4491C158.227 29.4491 157.869 29.5686 157.749 29.6881C157.032 29.5686 157.032 29.8076 157.032 30.0466Z" fill="#999999"/>
<path opacity="0.33" d="M196.945 56.8145C196.945 56.8145 220.009 160.66 219.77 160.54C217.977 156.358 181.171 155.521 114.49 154.207C54.7404 153.012 3.23591 157.433 0.128906 160.54L157.63 30.0465C159.064 29.0905 166.234 30.644 182.127 41.638C190.731 47.852 196.228 53.349 196.945 56.8145Z" fill="url(#paint13_linear_7334_16659)"/>
<path d="M178.543 150.741C178.304 150.622 178.184 150.263 178.184 149.905C178.184 149.905 178.184 149.905 178.184 149.785L179.738 140.464L181.65 128.514L182.606 122.42L182.725 121.464L182.964 120.03C182.964 120.03 183.084 119.313 182.964 118.237L183.801 118.476C183.801 118.476 185.593 109.514 170.178 105.212C169.819 105.092 169.461 104.973 169.102 104.853L71.8293 77.8465L28.0922 65.777C27.0167 65.538 25.7022 66.016 24.7462 67.0915C24.3877 67.45 24.0292 68.0475 23.9097 68.5255L17.9347 86.4505C17.6957 87.048 17.5762 87.526 17.3372 88.1235C17.2177 88.482 17.0982 88.96 16.9787 89.3185L16.2617 91.589L15.1862 95.174L11.6012 107.004C10.8842 109.155 12.3182 111.306 14.3497 112.023L35.6207 120.508L38.1302 121.225L38.9667 121.464L43.0297 122.539L46.4952 123.615L50.5583 124.69L51.3947 124.929L54.8602 125.885L55.6968 126.124L59.7597 127.2L62.9862 128.036L67.0493 129.112L68.0052 129.59L113.893 142.257L138.391 149.068L139.466 149.307L143.41 150.383L143.768 150.502L146.517 151.219H146.636L150.819 152.414L151.655 152.653L170.895 158.031C173.165 158.628 175.555 157.314 176.272 154.924L179.021 151.697C178.901 151.458 178.782 150.861 178.543 150.741Z" fill="#5590FF"/>
<path d="M178.543 150.741C178.304 150.622 178.184 150.263 178.184 149.905L176.87 148.112L173.882 147.276L166.354 136.879L15.4255 95.413L11.8405 107.243C11.1235 109.394 12.5575 111.545 14.589 112.262L35.86 120.747L114.013 142.257L170.775 158.031C173.046 158.628 175.436 157.314 176.153 154.924L178.901 151.697C178.901 151.458 178.782 150.861 178.543 150.741Z" fill="#2B75FF"/>
<path d="M178.89 150.329C178.651 150.209 178.531 149.851 178.531 149.492L177.217 147.7L174.229 146.863L166.701 136.467L15.7722 95L12.1872 106.831C11.4702 108.982 12.9042 111.133 14.9357 111.85L36.2067 120.334L114.36 141.844L171.122 157.618C173.393 158.216 175.783 156.901 176.5 154.511L179.248 151.285C179.248 151.046 179.129 150.448 178.89 150.329Z" fill="url(#paint14_linear_7334_16659)"/>
<path d="M38.2497 104.256C38.1302 103.778 37.8912 103.42 37.4132 103.181C37.0547 102.942 36.4572 102.822 36.0987 102.942C35.7402 103.061 35.5012 103.181 35.2622 103.42C35.1427 103.539 35.0232 103.659 35.0232 103.778C35.0232 103.898 34.9037 103.898 34.9037 104.017C34.7842 104.376 34.7842 104.734 34.7842 105.093C34.9037 105.571 35.1427 105.929 35.6207 106.168C35.7402 106.288 35.9792 106.288 36.0987 106.407C36.3377 106.527 36.6962 106.527 37.0547 106.407C37.5327 106.288 37.8912 106.049 38.1302 105.571C38.3692 105.212 38.3692 104.734 38.2497 104.256ZM37.8912 105.451C37.6522 105.81 37.2937 106.049 36.9352 106.168C36.5767 106.288 36.0987 106.168 35.7402 105.929C35.3817 105.69 35.1427 105.332 35.0232 104.973C34.9037 104.615 35.0232 104.376 35.1427 104.017C35.1427 103.898 35.2622 103.898 35.2622 103.778C35.3817 103.659 35.3817 103.539 35.5012 103.42C35.7402 103.181 35.9792 103.061 36.2182 103.061C36.4572 102.942 36.8157 102.942 37.0547 103.061C37.1742 103.061 37.2937 103.181 37.4132 103.181C37.7717 103.42 38.0107 103.778 38.1302 104.137C38.1302 104.734 38.1302 105.093 37.8912 105.451Z" fill="#353535"/>
<path d="M35.1427 104.017H35.0232C34.9037 104.017 34.9037 104.017 34.7842 103.898C34.7842 103.778 34.9037 103.659 34.9037 103.659C35.0232 103.539 35.0232 103.42 35.1427 103.3C35.2622 103.3 35.2622 103.42 35.2622 103.42V103.539C35.5012 103.778 35.3817 104.017 35.1427 104.017Z" fill="#353535"/>
<path d="M174.964 155.887C175.069 155.505 175.051 155.167 174.924 155.132C174.797 155.097 174.608 155.378 174.503 155.76C174.398 156.142 174.416 156.48 174.543 156.515C174.67 156.55 174.859 156.269 174.964 155.887Z" fill="#FF8B00"/>
<path d="M174.218 155.706C174.323 155.324 174.305 154.986 174.178 154.951C174.051 154.916 173.862 155.197 173.757 155.579C173.652 155.961 173.67 156.299 173.797 156.334C173.924 156.369 174.113 156.088 174.218 155.706Z" fill="white"/>
<path d="M179.737 120.866C180.813 115.608 179.02 111.665 173.165 109.155C173.045 109.036 172.089 108.797 171.97 108.797L170.177 108.199L168.265 107.721L26.658 68.5255C26.2995 68.406 25.8215 68.645 25.702 69.0035L21.9975 79.878C21.7585 80.356 21.878 80.9535 22.117 81.4315L23.551 84.18C23.79 84.658 24.268 85.136 24.8655 85.2555L159.303 122.3L161.693 137.477C161.693 138.552 163.246 142.735 163.963 143.571L171.253 149.905C172.209 150.98 174.001 150.622 174.36 149.188L179.737 120.866Z" fill="#1A1A1A"/>
<g opacity="0.4">
<path d="M176.033 136.401C176.033 136.043 176.152 135.326 176.272 134.728C176.391 134.011 176.511 133.294 176.511 133.294L176.63 132.697C176.63 132.577 176.511 132.577 176.391 132.577C176.391 132.697 176.272 132.577 176.152 132.577L175.077 129.47C175.077 129.47 175.077 129.231 174.479 128.873C173.882 128.634 171.372 127.439 171.133 127.319L170.894 127.08C170.894 127.08 170.894 127.08 170.894 126.961L171.014 126.483L171.133 126.363C171.253 126.363 171.253 126.363 171.253 126.363C172.567 127.08 174.121 127.2 174.24 127.2H174.36L174.479 127.08C173.762 126.363 172.448 125.885 171.492 125.646C171.611 125.646 171.85 125.646 172.209 125.646C172.806 125.527 174.599 125.168 174.599 125.049C174.599 125.049 174.957 125.049 175.077 125.168C175.196 125.288 175.196 125.288 175.196 125.288L174.718 125.407C174.718 125.527 174.599 125.646 174.838 125.646C175.077 125.646 175.555 125.407 175.555 125.407C175.555 125.407 175.674 125.407 175.794 125.407C176.033 125.407 176.511 125.168 176.63 125.049C176.63 124.929 176.75 124.929 176.75 124.929H176.869L177.706 126.602C177.706 126.722 177.825 126.722 177.945 126.602V126.363C177.945 126.363 177.945 126.363 177.945 126.244L177.228 124.81V124.69L178.901 123.973C178.901 123.854 179.02 123.734 178.781 123.734C178.542 123.734 176.75 124.451 176.391 124.571H176.272C176.033 124.451 175.316 124.093 174.479 124.212C173.643 124.332 172.209 124.332 171.97 124.332L171.85 124.212L171.731 123.615C171.731 123.615 171.253 121.703 171.133 121.703C171.133 121.703 171.014 121.583 171.014 121.464L170.894 121.344C170.894 121.344 170.894 121.344 170.894 121.225L171.014 120.747C171.014 120.627 171.133 120.627 171.133 120.627C171.253 120.747 171.611 120.866 171.611 120.747C171.731 120.747 171.731 120.508 171.731 120.508L171.85 120.269V120.03L172.089 119.91C172.089 119.91 172.209 119.91 172.089 119.791C172.089 119.671 171.97 119.432 171.97 119.313C171.97 119.313 171.97 119.193 172.089 119.193C172.089 119.074 172.209 118.835 172.209 118.835C172.209 118.715 172.209 118.596 172.328 118.476C172.328 118.357 172.328 118.237 172.328 118.237L171.731 117.879C171.731 117.879 170.655 117.281 170.177 117.759C169.699 118.237 169.58 119.074 169.699 119.193C169.819 119.313 170.058 119.791 170.177 119.791C170.297 119.791 170.297 119.91 170.297 119.91L170.058 120.627C169.938 120.747 169.938 120.747 169.938 120.747V120.866C169.938 120.866 169.819 120.986 169.699 121.225C169.58 121.344 169.46 121.225 169.46 121.105C169.58 120.627 169.699 120.149 169.699 120.149C169.699 120.149 170.058 118.835 169.46 118.118C169.46 118.118 169.46 118.118 169.46 117.998C169.699 116.206 169.938 114.652 170.177 113.577L170.297 113.457C172.209 114.055 173.762 114.533 174.718 114.772C178.542 116.086 179.14 119.193 179.259 120.627V120.508C180.215 115.489 178.542 111.784 172.806 109.275C172.687 109.155 171.85 108.916 171.611 108.916L169.938 108.319L168.982 108.08C168.982 108.08 168.863 108.08 168.863 108.199L162.768 133.294C162.768 133.414 162.649 133.414 162.529 133.294L162.171 132.338C162.171 132.577 162.171 132.816 162.171 132.816C162.41 137.357 162.768 140.106 162.768 140.225C163.127 141.062 163.485 141.898 163.844 142.137L170.894 148.232C171.85 149.188 173.523 148.949 173.882 147.634C173.882 147.634 173.882 147.515 173.882 147.395C174.001 147.037 176.033 136.401 176.033 136.401ZM172.209 133.533C172.089 133.533 172.089 133.294 172.209 133.294C172.448 133.294 172.687 133.294 172.926 133.294C173.045 133.294 173.045 133.294 173.165 133.175C173.165 133.175 173.165 133.175 173.165 133.055L174.599 133.414C174.599 133.414 174.718 133.414 174.718 133.533C174.838 133.772 174.838 133.892 174.957 134.131C174.957 134.25 174.957 134.25 174.838 134.25C174.121 134.25 173.165 133.892 172.209 133.533Z" fill="#353535"/>
</g>
<g opacity="0.26">
<path d="M171.971 150.622C171.612 150.503 171.254 150.264 171.015 150.025L163.725 143.691C163.008 142.855 161.335 138.672 161.335 137.477L159.543 126.364C159.184 123.974 157.392 122.062 155.121 121.464L24.7467 85.4946C24.1492 85.3751 23.5517 84.8971 23.3127 84.2996L21.8787 81.5511C21.6397 80.9536 21.5202 80.3561 21.7592 79.7586L25.4637 69.0036C25.5832 68.5256 26.1807 68.2866 26.6587 68.4061L170.059 107.961L171.851 108.558C171.971 108.558 172.927 108.797 173.046 108.917C178.782 111.426 180.814 115.131 179.738 120.867L174.241 149.188C174.002 149.905 173.524 150.383 172.807 150.622C172.568 150.742 172.329 150.622 171.971 150.622ZM26.6587 68.7646C26.3002 68.6451 26.0612 68.8841 25.9417 69.1231L22.2372 79.8781C21.9982 80.3561 22.1177 80.8341 22.3567 81.3121L23.7907 84.0606C24.0297 84.5386 24.5077 84.8971 24.9857 85.0166L159.543 122.062L161.933 137.358C161.933 138.314 163.486 142.496 164.203 143.333L171.493 149.666C171.971 150.144 172.568 150.383 173.166 150.144C173.763 150.025 174.241 149.547 174.361 149.069L179.858 120.747C180.933 115.25 178.902 111.665 173.285 109.275C173.166 109.156 172.329 108.917 172.09 108.917L170.298 108.319L168.505 107.841L26.6587 68.7646Z" fill="#232C64"/>
</g>
<g opacity="0.31">
<path d="M40.6393 81.073C38.0103 81.551 35.3813 81.9095 32.7523 82.3875C32.5133 82.3875 32.6328 82.746 32.8718 82.746C35.5008 82.268 38.1298 81.9095 40.7588 81.4315C40.8783 81.312 40.8783 80.9535 40.6393 81.073Z" fill="white"/>
<path d="M42.9099 81.6705C40.2809 82.1485 37.6519 82.507 35.0229 82.985C34.7839 82.985 34.9034 83.3435 35.1424 83.3435C37.7714 82.8655 40.4004 82.507 43.0294 82.029C43.2684 82.029 43.1489 81.551 42.9099 81.6705Z" fill="white"/>
<path d="M66.4509 88.243C63.8219 88.721 61.1929 89.0795 58.5639 89.5575C58.3249 89.5575 58.4444 89.916 58.6834 89.916C61.3124 89.438 63.9414 89.0795 66.5704 88.6015C66.6899 88.6015 66.5704 88.243 66.4509 88.243Z" fill="white"/>
<path d="M68.9606 88.8406C66.3316 89.3186 63.7026 89.6771 61.0736 90.1551C60.8346 90.1551 60.9541 90.5136 61.1931 90.5136C63.8221 90.0356 66.4511 89.6771 69.0801 89.1991C69.1996 89.1991 69.0801 88.8406 68.9606 88.8406Z" fill="white"/>
<path d="M92.1442 95.2935C89.5152 95.7715 86.8862 96.1299 84.2572 96.6079C84.0182 96.6079 84.1377 96.9664 84.3767 96.9664C87.0057 96.4884 89.6347 96.13 92.2637 95.652C92.6222 95.652 92.6222 95.413 92.1442 95.2935Z" fill="white"/>
<path d="M94.7731 96.13C92.1441 96.608 89.5151 96.9665 86.8861 97.4445C86.6471 97.4445 86.7666 97.803 87.0056 97.803C89.6346 97.325 92.2636 96.9665 94.8926 96.4885C95.0121 96.369 94.8926 96.0105 94.7731 96.13Z" fill="white"/>
<path d="M118.195 102.464C115.566 102.942 112.937 103.3 110.308 103.778C110.069 103.778 110.189 104.136 110.428 104.136C113.057 103.658 115.686 103.3 118.315 102.822C118.434 102.822 118.315 102.464 118.195 102.464Z" fill="white"/>
<path d="M120.466 103.181C117.837 103.659 115.208 104.017 112.579 104.495C112.34 104.495 112.459 104.854 112.698 104.854C115.327 104.376 117.956 104.017 120.585 103.539C120.944 103.42 120.824 103.061 120.466 103.181Z" fill="white"/>
<path d="M144.007 109.753C141.378 110.231 138.749 110.59 136.12 111.068C135.881 111.068 136 111.426 136.239 111.426C138.868 110.948 141.497 110.59 144.126 110.112C144.246 110.112 144.126 109.753 144.007 109.753Z" fill="white"/>
<path d="M146.396 110.351C143.767 110.829 141.138 111.187 138.509 111.665C138.27 111.665 138.39 112.024 138.629 112.024C141.258 111.546 143.887 111.187 146.516 110.709C146.755 110.59 146.635 110.231 146.396 110.351Z" fill="white"/>
</g>
<path opacity="0.1" d="M15.4733 95.0428L15.3779 95.3884L161.564 135.711L161.66 135.365L15.4733 95.0428Z" fill="#232C64"/>
<path opacity="0.1" d="M141.075 129.711L135.989 148.143L136.335 148.238L141.421 129.807L141.075 129.711Z" fill="#232C64"/>
<path opacity="0.1" d="M110.344 108.669L102.396 138.829L102.743 138.92L110.69 108.76L110.344 108.669Z" fill="#232C64"/>
<path d="M68.4834 96.4885L72.1879 81.79L72.5464 81.9095L68.8419 96.4885H68.4834Z" fill="#353535"/>
<path d="M110.547 108.08L114.251 93.3815L114.61 93.501L110.905 108.08H110.547Z" fill="#353535"/>
<path d="M131.579 113.816L135.284 99.2371L135.642 99.3565L131.938 113.936L131.579 113.816Z" fill="#353535"/>
<path d="M155.001 120.269L158.705 105.69L159.064 105.809L155.359 120.388L155.001 120.269Z" fill="#353535"/>
<path d="M47.332 90.7525L51.156 76.1735H51.5145L47.6905 90.872L47.332 90.7525Z" fill="#353535"/>
<path d="M89.5156 102.344L93.2201 87.765L93.5786 87.8845L89.7546 102.464L89.5156 102.344Z" fill="#353535"/>
<path opacity="0.1" d="M69.7979 129.829L74.4584 111.307L74.8168 111.426L70.1564 129.949L69.7979 129.829Z" fill="#232C64"/>
<path opacity="0.1" d="M43.867 90.3756L35.9199 120.536L36.2666 120.627L44.2137 90.467L43.867 90.3756Z" fill="#232C64"/>
<g opacity="0.32">
<path d="M34.4259 87.8845L28.9289 86.331L27.8534 81.551C27.6144 80.356 28.9289 79.4 30.4824 79.878L31.1994 80.117C32.1554 80.356 32.7529 80.9535 32.9919 81.6705L34.4259 87.8845Z" fill="#4C4C4B"/>
</g>
<g opacity="0.32">
<path d="M53.546 93.1425L48.049 91.589L46.9735 86.809C46.7345 85.614 48.049 84.658 49.6025 85.136L50.3195 85.375C51.2755 85.614 51.873 86.2115 52.112 86.9285L53.546 93.1425Z" fill="#4C4C4B"/>
</g>
<g opacity="0.32">
<path d="M91.7853 103.778L86.2883 102.224L85.2128 97.4445C84.9738 96.2495 86.2883 95.2935 87.8418 95.7715L88.5588 96.0105C89.5148 96.2495 90.1123 96.847 90.3513 97.564L91.7853 103.778Z" fill="#4C4C4B"/>
</g>
<g opacity="0.32">
<path d="M130.146 114.294L124.649 112.74L123.573 107.96C123.334 106.765 124.649 105.809 126.202 106.287L126.919 106.526C127.875 106.765 128.473 107.363 128.712 108.08L130.146 114.294Z" fill="#4C4C4B"/>
</g>
<g opacity="0.32">
<path d="M149.265 119.672L143.768 118.118L142.692 113.338C142.453 112.143 143.768 111.187 145.321 111.665L146.038 111.904C146.994 112.143 147.592 112.741 147.831 113.458L149.265 119.672Z" fill="#4C4C4B"/>
</g>
<g opacity="0.32">
<path d="M111.026 109.036L105.529 107.483L104.453 102.703C104.214 101.508 105.529 100.552 107.082 101.03L107.799 101.269C108.755 101.508 109.353 102.105 109.592 102.822L111.026 109.036Z" fill="#4C4C4B"/>
</g>
<g opacity="0.32">
<path d="M72.6661 98.52L67.1691 96.9665L66.0936 92.1865C65.8546 90.9915 67.1691 90.0355 68.7226 90.5135L69.4396 90.7525C70.3956 90.9915 70.9931 91.589 71.2321 92.306L72.6661 98.52Z" fill="#4C4C4B"/>
</g>
<path opacity="0.1" d="M168.982 157.314C169.341 157.314 169.699 157.314 169.938 157.195C170.297 157.075 170.536 156.956 170.775 156.836C171.014 156.717 171.253 156.478 171.492 156.239C171.731 156 171.97 155.761 172.089 155.522C172.209 155.044 172.328 154.566 172.448 154.088C172.567 153.61 172.687 153.132 172.926 152.654C173.045 152.176 173.165 151.698 173.404 151.22C173.523 150.742 173.762 150.264 173.882 149.786C173.762 150.264 173.643 150.742 173.523 151.22C173.404 151.698 173.284 152.176 173.165 152.654C173.045 153.132 172.926 153.61 172.806 154.088C172.687 154.566 172.567 155.044 172.448 155.522C172.209 155.761 171.97 156 171.731 156.239C171.492 156.478 171.253 156.717 170.894 156.836C170.536 156.956 170.297 157.075 169.938 157.195C169.699 157.434 169.341 157.434 168.982 157.314Z" fill="#232C64"/>
<path opacity="0.1" d="M158.945 154.566C158.586 154.446 158.347 154.207 158.108 153.968C157.869 153.729 157.75 153.49 157.63 153.132C157.511 152.893 157.391 152.534 157.272 152.176C157.152 151.817 157.152 151.578 157.152 151.22C157.272 150.742 157.391 150.264 157.511 149.786C157.63 149.308 157.75 148.83 157.869 148.352C157.989 147.874 158.108 147.396 158.228 146.918C158.347 146.44 161.335 135.804 161.454 135.326C161.335 135.804 158.228 146.32 158.108 146.798C157.989 147.276 157.75 147.754 157.63 148.232C157.511 148.71 157.391 149.188 157.152 149.666C157.033 150.144 156.913 150.622 156.794 151.1C156.794 151.459 156.913 151.817 157.033 152.056C157.152 152.415 157.272 152.654 157.391 153.012C157.511 153.251 157.75 153.61 157.989 153.849C158.347 154.327 158.706 154.566 158.945 154.566Z" fill="#232C64"/>
<path d="M87.9617 129.709L86.1692 129.231C85.8107 129.112 85.5717 128.753 85.6912 128.275C85.8107 127.917 86.1692 127.678 86.6472 127.797L88.4397 128.275C88.7982 128.395 89.0372 128.753 88.9177 129.231C88.7982 129.59 88.3202 129.829 87.9617 129.709Z" fill="#353535"/>
<path d="M87.8419 129.47L86.4079 129.112C86.1689 128.992 85.9299 128.753 86.0494 128.514C86.1689 128.275 86.4079 128.036 86.6469 128.156L88.0809 128.514C88.3199 128.634 88.5589 128.873 88.4394 129.112C88.4394 129.351 88.0809 129.59 87.8419 129.47Z" fill="#F9B52B"/>
<path d="M87.5579 128.833C87.5755 128.769 87.435 128.675 87.2441 128.623C87.0532 128.57 86.8843 128.579 86.8667 128.642C86.8492 128.706 86.9897 128.8 87.1806 128.853C87.3714 128.906 87.5404 128.897 87.5579 128.833Z" fill="#FFF200"/>
<path d="M33.3504 114.652L31.5579 114.174C31.1994 114.055 30.9604 113.696 31.0799 113.218C31.1994 112.86 31.5579 112.621 32.0359 112.74L33.8284 113.218C34.1869 113.338 34.4259 113.696 34.3064 114.174C34.1869 114.533 33.7089 114.772 33.3504 114.652Z" fill="#353535"/>
<path d="M33.2305 114.413L31.7965 114.055C31.5575 113.935 31.3185 113.696 31.438 113.457C31.5575 113.218 31.7965 112.979 32.0355 113.099L33.4695 113.457C33.7085 113.577 33.9475 113.816 33.828 114.055C33.828 114.294 33.4695 114.413 33.2305 114.413Z" fill="#F9B52B"/>
<path d="M121.9 139.15L120.108 138.672C119.749 138.553 119.51 138.194 119.63 137.716C119.749 137.358 120.108 137.118 120.586 137.238L122.378 137.716C122.737 137.836 122.976 138.194 122.856 138.672C122.737 139.031 122.259 139.27 121.9 139.15Z" fill="#353535"/>
<path d="M121.78 138.791L120.346 138.433C120.107 138.313 119.868 138.074 119.988 137.835C120.107 137.596 120.346 137.357 120.585 137.477L122.019 137.835C122.258 137.955 122.497 138.194 122.378 138.433C122.378 138.791 122.019 138.911 121.78 138.791Z" fill="#F9B52B"/>
<path d="M121.594 138.298C121.612 138.235 121.471 138.14 121.28 138.088C121.089 138.035 120.92 138.044 120.903 138.108C120.885 138.171 121.026 138.266 121.217 138.318C121.408 138.371 121.577 138.362 121.594 138.298Z" fill="#FFF200"/>
<path d="M170.656 155.282L168.864 154.804C168.505 154.685 168.266 154.326 168.386 153.848C168.505 153.49 168.864 153.251 169.342 153.37L171.134 153.848C171.493 153.968 171.732 154.326 171.612 154.804C171.373 155.163 171.015 155.402 170.656 155.282Z" fill="#231F20"/>
<path d="M170.536 154.924L169.102 154.565C168.863 154.446 168.624 154.207 168.744 153.968C168.863 153.729 169.102 153.49 169.341 153.609L170.775 153.968C171.014 154.087 171.253 154.326 171.134 154.565C171.014 154.924 170.775 155.043 170.536 154.924Z" fill="#ED1C24"/>
<path d="M170.374 154.369C170.392 154.305 170.251 154.211 170.061 154.158C169.87 154.105 169.701 154.114 169.683 154.178C169.666 154.242 169.806 154.336 169.997 154.388C170.188 154.441 170.357 154.432 170.374 154.369Z" fill="#FCB6D2"/>
<path d="M38.4883 120.627L39.4443 117.281C40.4003 113.696 44.2243 111.545 47.8093 112.501C51.3943 113.457 53.5453 117.281 52.5893 120.866L51.6333 124.212" fill="url(#paint15_linear_7334_16659)"/>
<path d="M52.1116 125.168L50.6776 124.81L51.6336 121.225C52.5896 117.759 50.6776 114.294 47.4511 113.338C45.8976 112.86 44.2246 113.099 42.7906 114.055C41.3566 114.891 40.2811 116.325 39.8031 117.998L38.8471 121.583L37.4131 121.225L38.3691 117.64C38.9666 115.608 40.2811 113.816 41.9541 112.74C43.7466 111.665 45.7781 111.426 47.6901 111.904C51.7531 112.979 54.0236 117.401 52.8286 121.583L52.1116 125.168Z" fill="#003599"/>
<path d="M52.3505 121.344C53.426 117.52 51.3945 113.577 47.69 112.501C44.105 111.545 40.281 113.816 39.2055 117.759L38.2495 121.105L38.13 121.344L37.7715 122.539L38.369 122.778L38.7275 121.583L51.1555 125.049L52.3505 121.344Z" fill="black"/>
<path d="M45.7786 126.363C49.4084 126.363 52.3511 123.421 52.3511 119.791C52.3511 116.161 49.4084 113.218 45.7786 113.218C42.1487 113.218 39.2061 116.161 39.2061 119.791C39.2061 123.421 42.1487 126.363 45.7786 126.363Z" fill="url(#paint16_radial_7334_16659)"/>
<path d="M45.7783 123.017C47.5602 123.017 49.0048 121.573 49.0048 119.791C49.0048 118.009 47.5602 116.564 45.7783 116.564C43.9963 116.564 42.5518 118.009 42.5518 119.791C42.5518 121.573 43.9963 123.017 45.7783 123.017Z" fill="white"/>
<path d="M45.7784 121.105C46.5043 121.105 47.0929 120.517 47.0929 119.791C47.0929 119.065 46.5043 118.476 45.7784 118.476C45.0524 118.476 44.4639 119.065 44.4639 119.791C44.4639 120.517 45.0524 121.105 45.7784 121.105Z" fill="url(#paint17_radial_7334_16659)"/>
<path opacity="0.2" d="M45.1816 122.061C44.5841 121.942 44.1061 121.464 43.8671 120.986C43.5086 120.508 43.5086 119.791 43.6281 119.313C43.7476 118.715 44.2256 118.237 44.7036 117.998C45.1816 117.64 45.8986 117.64 46.3766 117.759C46.9741 117.879 47.4521 118.357 47.6911 118.835C47.9301 119.313 48.0496 120.03 47.9301 120.508C47.8106 120.986 47.3326 121.583 46.8546 121.822C46.3766 122.061 45.7791 122.181 45.1816 122.061ZM46.2571 117.879C45.7791 117.759 45.1816 117.759 44.7036 118.118C44.2256 118.357 43.8671 118.835 43.7476 119.313C43.6281 119.791 43.6281 120.388 43.9866 120.866C44.2256 121.344 44.7036 121.703 45.1816 121.822C45.6596 121.942 46.2571 121.942 46.7351 121.583C47.2131 121.344 47.5716 120.866 47.6911 120.388C47.8106 119.91 47.8106 119.313 47.4521 118.835C47.3326 118.357 46.8546 117.998 46.2571 117.879Z" fill="#231F20"/>
<path d="M46.3761 118.118C46.5741 118.118 46.7346 117.957 46.7346 117.759C46.7346 117.561 46.5741 117.401 46.3761 117.401C46.1781 117.401 46.0176 117.561 46.0176 117.759C46.0176 117.957 46.1781 118.118 46.3761 118.118Z" fill="#231F20"/>
<path d="M45.1817 122.3C45.3797 122.3 45.5402 122.14 45.5402 121.942C45.5402 121.744 45.3797 121.583 45.1817 121.583C44.9838 121.583 44.8232 121.744 44.8232 121.942C44.8232 122.14 44.9838 122.3 45.1817 122.3Z" fill="#231F20"/>
<path d="M43.628 119.671C43.826 119.671 43.9865 119.511 43.9865 119.313C43.9865 119.115 43.826 118.954 43.628 118.954C43.43 118.954 43.2695 119.115 43.2695 119.313C43.2695 119.511 43.43 119.671 43.628 119.671Z" fill="#231F20"/>
<path d="M47.8106 120.747C48.0086 120.747 48.1692 120.586 48.1692 120.388C48.1692 120.19 48.0086 120.03 47.8106 120.03C47.6127 120.03 47.4521 120.19 47.4521 120.388C47.4521 120.586 47.6127 120.747 47.8106 120.747Z" fill="#231F20"/>
<path d="M43.8673 121.225C44.0653 121.225 44.2258 121.064 44.2258 120.866C44.2258 120.668 44.0653 120.508 43.8673 120.508C43.6693 120.508 43.5088 120.668 43.5088 120.866C43.5088 121.064 43.6693 121.225 43.8673 121.225Z" fill="#231F20"/>
<path d="M47.6915 119.074C47.8895 119.074 48.05 118.913 48.05 118.715C48.05 118.517 47.8895 118.357 47.6915 118.357C47.4935 118.357 47.333 118.517 47.333 118.715C47.333 118.913 47.4935 119.074 47.6915 119.074Z" fill="#231F20"/>
<path d="M46.8546 122.061C47.0526 122.061 47.2131 121.901 47.2131 121.703C47.2131 121.505 47.0526 121.344 46.8546 121.344C46.6566 121.344 46.4961 121.505 46.4961 121.703C46.4961 121.901 46.6566 122.061 46.8546 122.061Z" fill="#231F20"/>
<path d="M44.7032 118.357C44.9012 118.357 45.0617 118.196 45.0617 117.998C45.0617 117.8 44.9012 117.64 44.7032 117.64C44.5052 117.64 44.3447 117.8 44.3447 117.998C44.3447 118.196 44.5052 118.357 44.7032 118.357Z" fill="#231F20"/>
<path d="M54.2627 125.049L55.2187 121.703C56.1747 118.118 59.9987 115.967 63.5837 116.923C67.1687 117.879 69.3197 121.703 68.3637 125.288L67.4077 128.634" fill="url(#paint18_linear_7334_16659)"/>
<path d="M67.886 129.471L66.452 129.112L67.408 125.527C68.364 122.062 66.452 118.596 63.2255 117.64C61.672 117.162 59.999 117.401 58.565 118.357C57.131 119.194 56.0555 120.628 55.5775 122.301L54.6215 125.886L53.1875 125.527L54.1435 121.942C54.741 119.911 56.0555 118.118 57.7285 117.043C59.521 115.967 61.5525 115.728 63.4645 116.206C67.5275 117.282 69.798 121.703 68.603 125.886L67.886 129.471Z" fill="#003599"/>
<path d="M68.244 125.766C69.3195 121.942 67.288 117.998 63.5835 116.923C59.9985 115.967 56.1745 118.237 55.099 122.181L54.143 125.527L54.0235 125.766L53.665 126.961L54.2625 127.2L54.621 126.005L67.049 129.47L68.244 125.766Z" fill="black"/>
<path d="M61.553 130.666C65.1829 130.666 68.1255 127.723 68.1255 124.093C68.1255 120.463 65.1829 117.521 61.553 117.521C57.9231 117.521 54.9805 120.463 54.9805 124.093C54.9805 127.723 57.9231 130.666 61.553 130.666Z" fill="url(#paint19_radial_7334_16659)"/>
<path d="M61.5527 127.319C63.3346 127.319 64.7792 125.875 64.7792 124.093C64.7792 122.311 63.3346 120.866 61.5527 120.866C59.7707 120.866 58.3262 122.311 58.3262 124.093C58.3262 125.875 59.7707 127.319 61.5527 127.319Z" fill="white"/>
<path d="M61.5528 125.408C62.2788 125.408 62.8673 124.819 62.8673 124.093C62.8673 123.367 62.2788 122.779 61.5528 122.779C60.8268 122.779 60.2383 123.367 60.2383 124.093C60.2383 124.819 60.8268 125.408 61.5528 125.408Z" fill="url(#paint20_radial_7334_16659)"/>
<path opacity="0.2" d="M60.956 126.363C60.3585 126.244 59.8805 125.766 59.6415 125.288C59.283 124.81 59.283 124.093 59.4025 123.615C59.522 123.017 60 122.539 60.478 122.3C60.956 121.942 61.673 121.942 62.151 122.061C62.7485 122.181 63.2265 122.659 63.4655 123.137C63.824 123.615 63.824 124.332 63.7045 124.81C63.585 125.288 63.107 125.885 62.629 126.124C62.151 126.483 61.5535 126.483 60.956 126.363ZM62.151 122.181C61.673 122.061 61.0755 122.061 60.5975 122.42C60.1195 122.659 59.761 123.137 59.6415 123.615C59.522 124.093 59.522 124.69 59.8805 125.168C60.1195 125.646 60.5975 126.005 61.0755 126.124C61.5535 126.244 62.151 126.244 62.629 125.885C63.107 125.646 63.4655 125.168 63.585 124.69C63.7045 124.212 63.7045 123.615 63.346 123.137C63.107 122.659 62.629 122.3 62.151 122.181Z" fill="#231F20"/>
<path d="M62.1505 122.42C62.3485 122.42 62.509 122.26 62.509 122.062C62.509 121.864 62.3485 121.703 62.1505 121.703C61.9525 121.703 61.792 121.864 61.792 122.062C61.792 122.26 61.9525 122.42 62.1505 122.42Z" fill="#231F20"/>
<path d="M61.0753 126.603C61.2733 126.603 61.4338 126.442 61.4338 126.244C61.4338 126.046 61.2733 125.885 61.0753 125.885C60.8773 125.885 60.7168 126.046 60.7168 126.244C60.7168 126.442 60.8773 126.603 61.0753 126.603Z" fill="#231F20"/>
<path d="M59.5216 123.973C59.7196 123.973 59.8801 123.813 59.8801 123.615C59.8801 123.417 59.7196 123.256 59.5216 123.256C59.3236 123.256 59.1631 123.417 59.1631 123.615C59.1631 123.813 59.3236 123.973 59.5216 123.973Z" fill="#231F20"/>
<path d="M63.7042 125.169C63.9022 125.169 64.0627 125.008 64.0627 124.81C64.0627 124.612 63.9022 124.452 63.7042 124.452C63.5062 124.452 63.3457 124.612 63.3457 124.81C63.3457 125.008 63.5062 125.169 63.7042 125.169Z" fill="#231F20"/>
<path d="M59.7608 125.647C59.9588 125.647 60.1193 125.486 60.1193 125.288C60.1193 125.09 59.9588 124.93 59.7608 124.93C59.5628 124.93 59.4023 125.09 59.4023 125.288C59.4023 125.486 59.5628 125.647 59.7608 125.647Z" fill="#231F20"/>
<path d="M63.4649 123.496C63.6629 123.496 63.8234 123.335 63.8234 123.137C63.8234 122.939 63.6629 122.779 63.4649 122.779C63.267 122.779 63.1064 122.939 63.1064 123.137C63.1064 123.335 63.267 123.496 63.4649 123.496Z" fill="#231F20"/>
<path d="M62.629 126.363C62.827 126.363 62.9875 126.203 62.9875 126.005C62.9875 125.807 62.827 125.646 62.629 125.646C62.431 125.646 62.2705 125.807 62.2705 126.005C62.2705 126.203 62.431 126.363 62.629 126.363Z" fill="#231F20"/>
<path d="M60.4776 122.659C60.6756 122.659 60.8361 122.498 60.8361 122.301C60.8361 122.103 60.6756 121.942 60.4776 121.942C60.2796 121.942 60.1191 122.103 60.1191 122.301C60.1191 122.498 60.2796 122.659 60.4776 122.659Z" fill="#231F20"/>
<path d="M138.749 148.232L139.705 144.886C140.661 141.301 144.485 139.15 148.07 140.106C151.655 141.062 153.806 144.886 152.85 148.471L151.894 151.817" fill="url(#paint21_linear_7334_16659)"/>
<path d="M152.372 152.654L150.938 152.295L151.894 148.71C152.85 145.245 150.938 141.779 147.712 140.823C146.158 140.345 144.485 140.584 143.051 141.54C141.617 142.377 140.542 143.811 140.064 145.484L139.108 149.069L137.674 148.71L138.63 145.125C139.227 143.094 140.542 141.301 142.215 140.226C144.007 139.15 146.039 138.911 147.951 139.389C152.014 140.465 154.284 144.886 153.089 149.069L152.372 152.654Z" fill="#003599"/>
<path d="M152.73 148.949C153.806 145.125 151.774 141.182 148.07 140.106C144.485 139.15 140.661 141.421 139.585 145.364L138.629 148.71L138.51 148.949L138.151 150.144L138.749 150.383L139.107 149.188L151.535 152.654L152.73 148.949Z" fill="black"/>
<path d="M146.039 153.848C149.669 153.848 152.612 150.906 152.612 147.276C152.612 143.646 149.669 140.703 146.039 140.703C142.409 140.703 139.467 143.646 139.467 147.276C139.467 150.906 142.409 153.848 146.039 153.848Z" fill="url(#paint22_radial_7334_16659)"/>
<path d="M146.039 150.502C147.821 150.502 149.266 149.058 149.266 147.276C149.266 145.494 147.821 144.049 146.039 144.049C144.257 144.049 142.812 145.494 142.812 147.276C142.812 149.058 144.257 150.502 146.039 150.502Z" fill="white"/>
<path d="M146.039 148.59C146.765 148.59 147.354 148.002 147.354 147.276C147.354 146.55 146.765 145.961 146.039 145.961C145.313 145.961 144.725 146.55 144.725 147.276C144.725 148.002 145.313 148.59 146.039 148.59Z" fill="url(#paint23_radial_7334_16659)"/>
<path opacity="0.2" d="M145.442 149.546C144.845 149.427 144.367 148.949 144.128 148.471C143.769 147.993 143.769 147.276 143.889 146.798C144.008 146.2 144.486 145.722 144.964 145.483C145.442 145.125 146.159 145.125 146.637 145.244C147.235 145.364 147.713 145.842 147.952 146.32C148.31 146.798 148.31 147.515 148.191 147.993C148.071 148.59 147.593 149.068 147.115 149.307C146.637 149.666 146.04 149.785 145.442 149.546ZM146.637 145.364C146.159 145.244 145.562 145.244 145.084 145.603C144.606 145.842 144.247 146.32 144.128 146.798C144.008 147.276 144.008 147.873 144.367 148.351C144.606 148.829 145.084 149.188 145.562 149.307C146.04 149.427 146.637 149.427 147.115 149.068C147.593 148.829 147.952 148.351 148.071 147.873C148.191 147.395 148.191 146.798 147.832 146.32C147.593 145.842 147.115 145.483 146.637 145.364Z" fill="#231F20"/>
<path d="M146.637 145.603C146.835 145.603 146.995 145.442 146.995 145.244C146.995 145.046 146.835 144.886 146.637 144.886C146.439 144.886 146.278 145.046 146.278 145.244C146.278 145.442 146.439 145.603 146.637 145.603Z" fill="#231F20"/>
<path d="M145.442 149.785C145.64 149.785 145.8 149.625 145.8 149.427C145.8 149.229 145.64 149.068 145.442 149.068C145.244 149.068 145.083 149.229 145.083 149.427C145.083 149.625 145.244 149.785 145.442 149.785Z" fill="#231F20"/>
<path d="M144.008 147.156C144.206 147.156 144.366 146.996 144.366 146.798C144.366 146.6 144.206 146.439 144.008 146.439C143.81 146.439 143.649 146.6 143.649 146.798C143.649 146.996 143.81 147.156 144.008 147.156Z" fill="#231F20"/>
<path d="M148.191 148.352C148.389 148.352 148.549 148.191 148.549 147.993C148.549 147.795 148.389 147.635 148.191 147.635C147.993 147.635 147.832 147.795 147.832 147.993C147.832 148.191 147.993 148.352 148.191 148.352Z" fill="#231F20"/>
<path d="M144.127 148.829C144.325 148.829 144.486 148.669 144.486 148.471C144.486 148.273 144.325 148.112 144.127 148.112C143.929 148.112 143.769 148.273 143.769 148.471C143.769 148.669 143.929 148.829 144.127 148.829Z" fill="#231F20"/>
<path d="M147.951 146.678C148.149 146.678 148.31 146.518 148.31 146.32C148.31 146.122 148.149 145.961 147.951 145.961C147.753 145.961 147.593 146.122 147.593 146.32C147.593 146.518 147.753 146.678 147.951 146.678Z" fill="#231F20"/>
<path d="M147.115 149.666C147.313 149.666 147.474 149.505 147.474 149.307C147.474 149.109 147.313 148.949 147.115 148.949C146.917 148.949 146.757 149.109 146.757 149.307C146.757 149.505 146.917 149.666 147.115 149.666Z" fill="#231F20"/>
<path d="M144.964 145.842C145.162 145.842 145.322 145.681 145.322 145.484C145.322 145.286 145.162 145.125 144.964 145.125C144.766 145.125 144.605 145.286 144.605 145.484C144.605 145.681 144.766 145.842 144.964 145.842Z" fill="#231F20"/>
<path d="M32.9515 113.765C32.969 113.702 32.8285 113.607 32.6377 113.555C32.4468 113.502 32.2778 113.511 32.2603 113.574C32.2427 113.638 32.3832 113.732 32.5741 113.785C32.765 113.838 32.9339 113.829 32.9515 113.765Z" fill="#FFF200"/>
<path d="M167.907 109.036L169.699 109.514L171.372 110.111C171.611 110.111 172.209 110.35 172.448 110.47C177.467 112.621 179.14 115.608 178.184 120.627L172.687 148.949C172.567 149.188 172.328 149.188 172.209 149.188C172.089 149.188 172.089 149.188 172.089 149.068L171.97 148.949L171.85 148.829L164.68 142.615C164.083 141.898 162.888 138.433 162.768 137.596V137.477V137.357L160.737 124.451C160.378 122.539 158.944 120.986 157.152 120.388L25.224 83.941C25.1045 83.941 24.8655 83.8215 24.8655 83.5825L23.4315 80.834C23.312 80.7145 23.312 80.4755 23.4315 80.356L26.7775 70.6765C26.897 70.318 27.2555 70.1985 27.614 70.318L167.907 109.036ZM26.658 68.5255C26.2995 68.406 25.941 68.645 25.702 69.0035L21.9975 79.878C21.7585 80.356 21.878 80.9535 22.117 81.4315L23.551 84.18C23.79 84.658 24.268 85.136 24.8655 85.2555L155.359 121.225C157.749 121.822 159.422 123.854 159.781 126.124L161.573 137.357C161.573 138.433 163.127 142.615 163.844 143.452L171.133 149.785C171.372 150.024 171.731 150.263 171.97 150.383C172.926 150.622 173.882 150.144 174.24 149.188L179.737 120.866C180.813 115.608 179.02 111.665 173.165 109.155C173.045 109.036 172.089 108.797 171.97 108.797L170.177 108.199L168.265 107.721L26.658 68.5255Z" fill="#353535"/>
<path d="M162.171 135.685L15.6638 95.413C15.5443 95.413 15.4248 95.2935 15.4248 95.174L15.5443 94.8155C15.5443 94.696 15.7833 94.696 15.9028 94.696L162.41 134.968L162.171 135.685Z" fill="#353535"/>
<path d="M162.41 134.011L158.945 122.181L154.882 120.866L159.064 105.929L168.624 108.558L162.41 134.011Z" fill="#353535"/>
<path opacity="0.13" d="M26.0606 111.784L14.1106 108.438C13.7521 108.319 13.5131 107.96 13.6326 107.482L16.1421 98.281C16.2616 97.9225 16.6201 97.6835 17.0981 97.6835L29.0481 101.029C29.4066 101.149 29.6456 101.507 29.5261 101.985L27.0167 111.187C26.8972 111.665 26.4191 111.904 26.0606 111.784ZM16.9786 97.9225C16.6201 97.803 16.3811 98.042 16.2616 98.281L13.7521 107.482C13.6326 107.841 13.8716 108.08 14.1106 108.199L26.0606 111.545C26.4191 111.665 26.6581 111.426 26.7776 111.187L29.2871 101.985C29.4066 101.627 29.1676 101.388 28.9286 101.268L16.9786 97.9225Z" fill="#353535"/>
<path d="M28.4506 102.224L16.9786 99.1175C16.8591 99.1175 16.7396 98.998 16.8591 98.8785C16.8591 98.759 16.9786 98.6395 17.0981 98.759L28.5701 101.866C28.6896 101.866 28.8091 101.985 28.6896 102.105C28.8091 102.224 28.5701 102.344 28.4506 102.224Z" fill="#353535"/>
<path d="M28.2113 103.181L16.7393 100.074C16.6198 100.074 16.5003 99.954 16.6198 99.8345C16.6198 99.715 16.7393 99.5955 16.8588 99.715L28.3308 102.822C28.4503 102.822 28.5698 102.942 28.4503 103.061C28.5698 103.061 28.3308 103.181 28.2113 103.181Z" fill="#353535"/>
<path d="M27.973 104.017L16.501 100.91C16.3815 100.91 16.262 100.79 16.3815 100.671C16.3815 100.551 16.501 100.432 16.6205 100.551L28.0925 103.658C28.212 103.658 28.3315 103.778 28.212 103.897C28.3315 103.897 28.0925 104.017 27.973 104.017Z" fill="#353535"/>
<path d="M27.7338 104.854L16.2618 101.747C16.1423 101.747 16.0228 101.627 16.1423 101.508C16.1423 101.388 16.2618 101.268 16.3813 101.388L27.8533 104.495C27.9728 104.495 28.0923 104.615 27.9728 104.734C28.0923 104.854 27.8533 104.854 27.7338 104.854Z" fill="#353535"/>
<path d="M27.4945 105.69L16.0225 102.583C15.903 102.583 15.7835 102.464 15.903 102.344C15.903 102.225 16.0225 102.105 16.142 102.225L27.614 105.332C27.7335 105.332 27.853 105.451 27.7335 105.571C27.853 105.69 27.7335 105.69 27.4945 105.69Z" fill="#353535"/>
<path d="M27.2562 106.526L15.7842 103.419C15.6647 103.419 15.5452 103.3 15.6647 103.18C15.6647 103.061 15.7842 102.941 15.9037 103.061L27.3757 106.168C27.4952 106.168 27.6147 106.287 27.4952 106.407C27.6147 106.526 27.4952 106.646 27.2562 106.526Z" fill="#353535"/>
<path d="M27.017 107.483L15.545 104.376C15.4255 104.376 15.306 104.256 15.4255 104.137C15.4255 104.017 15.545 103.898 15.6645 104.017L27.1365 107.124C27.256 107.124 27.3755 107.244 27.256 107.363C27.3755 107.363 27.256 107.483 27.017 107.483Z" fill="#353535"/>
<path d="M26.8969 108.319L15.4249 105.212C15.3054 105.212 15.1859 105.092 15.3054 104.973C15.3054 104.853 15.4249 104.734 15.5444 104.853L27.0164 107.96C27.1359 107.96 27.2554 108.08 27.1359 108.199C27.1359 108.199 27.0164 108.319 26.8969 108.319Z" fill="#353535"/>
<path d="M26.6586 109.155L15.1866 106.049C15.0671 106.049 14.9476 105.929 15.0671 105.81C15.0671 105.69 15.1866 105.57 15.3061 105.69L26.7781 108.797C26.8976 108.797 27.0171 108.917 26.8976 109.036C26.8976 109.156 26.7781 109.155 26.6586 109.155Z" fill="#353535"/>
<path d="M26.4193 109.992L14.9473 106.885C14.8278 106.885 14.7083 106.766 14.8278 106.646C14.8278 106.527 14.9473 106.407 15.0668 106.527L26.5388 109.634C26.6583 109.634 26.7778 109.753 26.6583 109.873C26.6583 109.992 26.5388 109.992 26.4193 109.992Z" fill="#353535"/>
<path d="M26.1801 110.828L14.7081 107.721C14.5886 107.721 14.4691 107.602 14.5886 107.482C14.5886 107.363 14.7081 107.243 14.8276 107.363L26.2996 110.47C26.4191 110.47 26.5386 110.589 26.4191 110.709C26.4191 110.828 26.2996 110.948 26.1801 110.828Z" fill="#353535"/>
<path d="M28.8094 97.8029L27.0169 97.3249C26.6584 97.2054 26.4194 96.8469 26.5389 96.3689C26.6584 96.0104 27.0169 95.7714 27.4949 95.8909L29.2874 96.3689C29.6459 96.4884 29.8849 96.8469 29.7654 97.3249C29.6459 97.6834 29.1679 97.9224 28.8094 97.8029Z" fill="#231F20"/>
<path d="M28.6895 97.5639L27.2555 97.2054C27.0165 97.0859 26.7775 96.8469 26.897 96.6079C27.0165 96.3689 27.2555 96.1299 27.4945 96.2494L28.9285 96.6079C29.1675 96.7274 29.4065 96.9664 29.287 97.2054C29.287 97.4444 28.9285 97.6834 28.6895 97.5639Z" fill="#ED1C24"/>
<path d="M28.5013 96.9786C28.5188 96.915 28.3783 96.8208 28.1875 96.7681C27.9966 96.7155 27.8276 96.7244 27.8101 96.788C27.7925 96.8516 27.9331 96.9459 28.1239 96.9985C28.3148 97.0512 28.4837 97.0423 28.5013 96.9786Z" fill="#FCB6D2"/>
<path d="M17.576 88.243L16.0225 93.6205L16.5005 93.74C16.859 93.8595 17.098 93.6205 17.2175 93.3815L18.4125 89.199C18.532 88.8405 18.293 88.6015 18.054 88.482L17.576 88.243Z" fill="#353535"/>
<path d="M17.4568 88.3625L15.9033 93.5011L16.3813 93.6205C16.6203 93.74 16.9788 93.5011 17.0983 93.2621L18.1738 89.199C18.2933 88.8405 18.0543 88.6015 17.8153 88.482L17.4568 88.3625Z" fill="#ED1C24"/>
<path d="M183.562 120.867C183.681 120.269 183.681 119.552 183.681 118.477L181.889 117.999C182.008 119.194 181.889 120.389 181.65 121.823C180.574 128.037 177.587 144.289 176.75 148.591C176.631 149.188 176.989 149.786 177.587 150.025L178.184 150.144C178.184 150.264 183.203 122.54 183.562 120.867Z" fill="#353535"/>
<path d="M187.744 119.91H187.505C186.429 117.759 180.215 116.564 180.215 116.564C180.096 117.52 180.574 117.64 180.574 117.64C180.574 117.64 184.517 118.835 185.473 119.193C185.832 119.313 186.071 119.552 186.19 119.671C185.951 119.671 185.712 119.91 185.712 120.269L185.115 128.156C185.115 128.275 185.593 128.514 185.712 128.514C185.832 128.514 186.071 128.514 186.071 128.275L188.102 120.866C188.341 120.388 188.102 120.03 187.744 119.91Z" fill="#0047CC"/>
<path d="M175.675 150.264C175.675 150.144 175.555 150.144 175.436 150.144C175.077 150.144 174.838 150.383 174.719 150.622L174.241 152.534C174.121 153.012 174.48 153.49 175.077 153.729L175.914 153.968C176.272 154.088 176.631 153.968 176.75 153.729L177.109 153.251C177.228 153.012 177.228 152.773 177.109 152.534L175.675 150.264Z" fill="white"/>
<defs>
<linearGradient id="paint0_linear_7334_16659" x1="16.2617" y1="143.512" x2="186.788" y2="143.512" gradientUnits="userSpaceOnUse">
<stop stop-color="#CCE0F4"/>
<stop offset="0.0640509" stop-color="#C3DCF2"/>
<stop offset="0.1706" stop-color="#A9D2EE"/>
<stop offset="0.3066" stop-color="#80C2E7"/>
<stop offset="0.4649" stop-color="#47ACDE"/>
<stop offset="0.5674" stop-color="#1E9CD7"/>
<stop offset="0.8652" stop-color="#0075BE"/>
<stop offset="0.9944" stop-color="#005B97"/>
</linearGradient>
<linearGradient id="paint1_linear_7334_16659" x1="16.2617" y1="145.663" x2="186.788" y2="145.663" gradientUnits="userSpaceOnUse">
<stop stop-color="#CCE0F4"/>
<stop offset="0.0640509" stop-color="#C3DCF2"/>
<stop offset="0.1706" stop-color="#A9D2EE"/>
<stop offset="0.3066" stop-color="#80C2E7"/>
<stop offset="0.4649" stop-color="#47ACDE"/>
<stop offset="0.5674" stop-color="#1E9CD7"/>
<stop offset="0.8652" stop-color="#0075BE"/>
<stop offset="0.9944" stop-color="#005B97"/>
</linearGradient>
<linearGradient id="paint2_linear_7334_16659" x1="51.4505" y1="145.603" x2="52.8233" y2="145.603" gradientUnits="userSpaceOnUse">
<stop stop-color="#CCE0F4"/>
<stop offset="0.0640509" stop-color="#C3DCF2"/>
<stop offset="0.1706" stop-color="#A9D2EE"/>
<stop offset="0.3066" stop-color="#80C2E7"/>
<stop offset="0.4649" stop-color="#47ACDE"/>
<stop offset="0.5674" stop-color="#1E9CD7"/>
<stop offset="0.8652" stop-color="#0075BE"/>
<stop offset="0.9944" stop-color="#005B97"/>
</linearGradient>
<linearGradient id="paint3_linear_7334_16659" x1="20.0622" y1="145.603" x2="21.435" y2="145.603" gradientUnits="userSpaceOnUse">
<stop stop-color="#CCE0F4"/>
<stop offset="0.0640509" stop-color="#C3DCF2"/>
<stop offset="0.1706" stop-color="#A9D2EE"/>
<stop offset="0.3066" stop-color="#80C2E7"/>
<stop offset="0.4649" stop-color="#47ACDE"/>
<stop offset="0.5674" stop-color="#1E9CD7"/>
<stop offset="0.8652" stop-color="#0075BE"/>
<stop offset="0.9944" stop-color="#005B97"/>
</linearGradient>
<linearGradient id="paint4_linear_7334_16659" x1="82.8394" y1="145.603" x2="84.2122" y2="145.603" gradientUnits="userSpaceOnUse">
<stop stop-color="#CCE0F4"/>
<stop offset="0.0640509" stop-color="#C3DCF2"/>
<stop offset="0.1706" stop-color="#A9D2EE"/>
<stop offset="0.3066" stop-color="#80C2E7"/>
<stop offset="0.4649" stop-color="#47ACDE"/>
<stop offset="0.5674" stop-color="#1E9CD7"/>
<stop offset="0.8652" stop-color="#0075BE"/>
<stop offset="0.9944" stop-color="#005B97"/>
</linearGradient>
<linearGradient id="paint5_linear_7334_16659" x1="114.228" y1="145.603" x2="115.601" y2="145.603" gradientUnits="userSpaceOnUse">
<stop stop-color="#CCE0F4"/>
<stop offset="0.0640509" stop-color="#C3DCF2"/>
<stop offset="0.1706" stop-color="#A9D2EE"/>
<stop offset="0.3066" stop-color="#80C2E7"/>
<stop offset="0.4649" stop-color="#47ACDE"/>
<stop offset="0.5674" stop-color="#1E9CD7"/>
<stop offset="0.8652" stop-color="#0075BE"/>
<stop offset="0.9944" stop-color="#005B97"/>
</linearGradient>
<linearGradient id="paint6_linear_7334_16659" x1="145.616" y1="145.603" x2="146.989" y2="145.603" gradientUnits="userSpaceOnUse">
<stop stop-color="#CCE0F4"/>
<stop offset="0.0640509" stop-color="#C3DCF2"/>
<stop offset="0.1706" stop-color="#A9D2EE"/>
<stop offset="0.3066" stop-color="#80C2E7"/>
<stop offset="0.4649" stop-color="#47ACDE"/>
<stop offset="0.5674" stop-color="#1E9CD7"/>
<stop offset="0.8652" stop-color="#0075BE"/>
<stop offset="0.9944" stop-color="#005B97"/>
</linearGradient>
<linearGradient id="paint7_linear_7334_16659" x1="177.2" y1="145.723" x2="178.573" y2="145.723" gradientUnits="userSpaceOnUse">
<stop stop-color="#CCE0F4"/>
<stop offset="0.0640509" stop-color="#C3DCF2"/>
<stop offset="0.1706" stop-color="#A9D2EE"/>
<stop offset="0.3066" stop-color="#80C2E7"/>
<stop offset="0.4649" stop-color="#47ACDE"/>
<stop offset="0.5674" stop-color="#1E9CD7"/>
<stop offset="0.8652" stop-color="#0075BE"/>
<stop offset="0.9944" stop-color="#005B97"/>
</linearGradient>
<linearGradient id="paint8_linear_7334_16659" x1="14.5889" y1="149.307" x2="195.631" y2="149.307" gradientUnits="userSpaceOnUse">
<stop stop-color="#CCE0F4"/>
<stop offset="0.0640509" stop-color="#C3DCF2"/>
<stop offset="0.1706" stop-color="#A9D2EE"/>
<stop offset="0.3066" stop-color="#80C2E7"/>
<stop offset="0.4649" stop-color="#47ACDE"/>
<stop offset="0.5674" stop-color="#1E9CD7"/>
<stop offset="0.8652" stop-color="#0075BE"/>
<stop offset="0.9944" stop-color="#005B97"/>
</linearGradient>
<linearGradient id="paint9_linear_7334_16659" x1="14.5889" y1="148.172" x2="195.631" y2="148.172" gradientUnits="userSpaceOnUse">
<stop stop-color="#CCE0F4"/>
<stop offset="0.0640509" stop-color="#C3DCF2"/>
<stop offset="0.1706" stop-color="#A9D2EE"/>
<stop offset="0.3066" stop-color="#80C2E7"/>
<stop offset="0.4649" stop-color="#47ACDE"/>
<stop offset="0.5674" stop-color="#1E9CD7"/>
<stop offset="0.8652" stop-color="#0075BE"/>
<stop offset="0.9944" stop-color="#005B97"/>
</linearGradient>
<linearGradient id="paint10_linear_7334_16659" x1="174.252" y1="30.644" x2="175.472" y2="30.644" gradientUnits="userSpaceOnUse">
<stop stop-color="#CCE0F4"/>
<stop offset="0.0640509" stop-color="#C3DCF2"/>
<stop offset="0.1706" stop-color="#A9D2EE"/>
<stop offset="0.3066" stop-color="#80C2E7"/>
<stop offset="0.4649" stop-color="#47ACDE"/>
<stop offset="0.5674" stop-color="#1E9CD7"/>
<stop offset="0.8652" stop-color="#0075BE"/>
<stop offset="0.9944" stop-color="#005B97"/>
</linearGradient>
<linearGradient id="paint11_linear_7334_16659" x1="174.258" y1="46.7584" x2="178.714" y2="40.3616" gradientUnits="userSpaceOnUse">
<stop stop-color="#FFDE17"/>
<stop offset="0.5851" stop-color="#FFDF19"/>
<stop offset="0.7955" stop-color="#FDE320"/>
<stop offset="0.9453" stop-color="#FAE92B"/>
<stop offset="1" stop-color="#F9ED32"/>
</linearGradient>
<linearGradient id="paint12_linear_7334_16659" x1="162.738" y1="62.2008" x2="178.847" y2="40.3012" gradientUnits="userSpaceOnUse">
<stop offset="0.000617043" stop-color="#FFB817"/>
<stop offset="0.7955" stop-color="#FDE320"/>
<stop offset="0.9453" stop-color="#FAE92B"/>
<stop offset="1" stop-color="#F9ED32"/>
</linearGradient>
<linearGradient id="paint13_linear_7334_16659" x1="109.95" y1="158.097" x2="109.95" y2="32.4286" gradientUnits="userSpaceOnUse">
<stop stop-color="#062285" stop-opacity="0.2"/>
<stop offset="0.9148" stop-color="#1064E0"/>
</linearGradient>
<linearGradient id="paint14_linear_7334_16659" x1="93.5459" y1="123.307" x2="96.3964" y2="112.931" gradientUnits="userSpaceOnUse">
<stop stop-color="#062285" stop-opacity="0.2"/>
<stop offset="1" stop-opacity="0"/>
</linearGradient>
<linearGradient id="paint15_linear_7334_16659" x1="40.0162" y1="115.805" x2="53.1623" y2="119.417" gradientUnits="userSpaceOnUse">
<stop stop-color="#FFDE17"/>
<stop offset="0.5851" stop-color="#FFDF19"/>
<stop offset="0.7955" stop-color="#FDE320"/>
<stop offset="0.9453" stop-color="#FAE92B"/>
<stop offset="1" stop-color="#F9ED32"/>
</linearGradient>
<radialGradient id="paint16_radial_7334_16659" cx="0" cy="0" r="1" gradientUnits="userSpaceOnUse" gradientTransform="translate(45.8611 119.4) rotate(15.4204) scale(6.54477)">
<stop stop-color="#6D6E71"/>
<stop offset="0.2531" stop-color="#575759"/>
<stop offset="0.7462" stop-color="#322F30"/>
</radialGradient>
<radialGradient id="paint17_radial_7334_16659" cx="0" cy="0" r="1" gradientUnits="userSpaceOnUse" gradientTransform="translate(45.8047 119.376) rotate(15.4204) scale(1.28247 1.28247)">
<stop stop-color="#A7A9AC"/>
<stop offset="0.3314" stop-color="#97999C"/>
<stop offset="0.9756" stop-color="#6F7073"/>
<stop offset="1" stop-color="#6D6E71"/>
</radialGradient>
<linearGradient id="paint18_linear_7334_16659" x1="55.8505" y1="120.155" x2="68.9972" y2="123.767" gradientUnits="userSpaceOnUse">
<stop stop-color="#FFDE17"/>
<stop offset="0.5851" stop-color="#FFDF19"/>
<stop offset="0.7955" stop-color="#FDE320"/>
<stop offset="0.9453" stop-color="#FAE92B"/>
<stop offset="1" stop-color="#F9ED32"/>
</linearGradient>
<radialGradient id="paint19_radial_7334_16659" cx="0" cy="0" r="1" gradientUnits="userSpaceOnUse" gradientTransform="translate(61.6958 123.75) rotate(15.4204) scale(6.54477)">
<stop stop-color="#6D6E71"/>
<stop offset="0.2531" stop-color="#575759"/>
<stop offset="0.7462" stop-color="#322F30"/>
</radialGradient>
<radialGradient id="paint20_radial_7334_16659" cx="0" cy="0" r="1" gradientUnits="userSpaceOnUse" gradientTransform="translate(61.6394 123.725) rotate(15.4204) scale(1.28247 1.28247)">
<stop stop-color="#A7A9AC"/>
<stop offset="0.3314" stop-color="#97999C"/>
<stop offset="0.9756" stop-color="#6F7073"/>
<stop offset="1" stop-color="#6D6E71"/>
</radialGradient>
<linearGradient id="paint21_linear_7334_16659" x1="140.301" y1="143.354" x2="153.447" y2="146.966" gradientUnits="userSpaceOnUse">
<stop stop-color="#FFDE17"/>
<stop offset="0.5851" stop-color="#FFDF19"/>
<stop offset="0.7955" stop-color="#FDE320"/>
<stop offset="0.9453" stop-color="#FAE92B"/>
<stop offset="1" stop-color="#F9ED32"/>
</linearGradient>
<radialGradient id="paint22_radial_7334_16659" cx="0" cy="0" r="1" gradientUnits="userSpaceOnUse" gradientTransform="translate(146.145 146.945) rotate(15.4204) scale(6.54477)">
<stop stop-color="#6D6E71"/>
<stop offset="0.2531" stop-color="#575759"/>
<stop offset="0.7462" stop-color="#322F30"/>
</radialGradient>
<radialGradient id="paint23_radial_7334_16659" cx="0" cy="0" r="1" gradientUnits="userSpaceOnUse" gradientTransform="translate(146.088 146.92) rotate(15.4204) scale(1.28248 1.28247)">
<stop stop-color="#A7A9AC"/>
<stop offset="0.3314" stop-color="#97999C"/>
<stop offset="0.9756" stop-color="#6F7073"/>
<stop offset="1" stop-color="#6D6E71"/>
</radialGradient>
</defs>
</svg>
