<svg width="625" height="346" viewBox="0 0 625 346" fill="none" xmlns="http://www.w3.org/2000/svg">
<path d="M346.689 1.59825C319.935 13.0469 323.036 71.2126 335.586 96.1689C340.81 106.558 353.462 115.213 371.033 112.077C389.81 107.894 394.434 92.4015 396.41 78.1901C401.962 42.2126 372.24 -9.33498 346.689 1.59825Z" fill="#E28A3F"/>
<path d="M430.94 59.1266C410.354 60.2919 404.236 143.067 431.681 165.541C441.668 173.72 463.476 169.479 469.7 158.169C486.794 127.11 455.354 57.7447 430.94 59.1266Z" fill="#E28A3F"/>
<path d="M239.259 344.635C264.865 349.98 290.279 330.313 316.436 330.434C341.347 330.549 365.332 349.279 389.806 344.635C409.618 340.874 428.616 328.2 440.86 312.176C452.609 296.801 458.212 276.076 458.041 256.726C457.88 238.416 452.43 218.742 440.86 204.549C428.462 189.339 404.987 187.675 389.806 175.242C377.633 165.274 371.893 148.313 358.7 139.741C346.33 131.703 331.186 126.854 316.436 126.614C299.956 126.347 282.613 130.804 268.763 139.741C255.834 148.084 250.905 165.186 239.259 175.242C225.047 187.514 202.987 189.971 191.153 204.549C179.524 218.873 172.859 238.278 172.687 256.726C172.505 276.207 179.373 296.66 191.153 312.176C202.849 327.583 220.323 340.682 239.259 344.635Z" fill="#E28A3F"/>
<path d="M202.157 59.441C222.743 60.6063 228.861 143.382 201.417 165.856C191.429 174.035 169.621 169.793 163.397 158.484C146.303 127.424 177.743 58.0591 202.157 59.441Z" fill="#E28A3F"/>
<path d="M285.016 1.49196C311.771 12.9406 308.669 71.1063 296.12 96.0626C290.895 106.452 278.243 115.106 260.673 111.971C241.895 107.788 237.271 92.2952 235.296 78.0838C229.743 42.1063 259.466 -9.44126 285.016 1.49196Z" fill="#E28A3F"/>
<mask id="path-2-outside-1_1_2" maskUnits="userSpaceOnUse" x="-0.479965" y="190" width="626" height="115" fill="black">
<rect fill="white" x="-0.479965" y="190" width="626" height="115"/>
<path d="M25.744 243.064L10 206.2H29.104L41.68 237.688L54.064 206.2H73.168L57.424 243.064C55.792 246.808 53.392 249.688 50.608 251.608V271H32.848V251.8C29.968 249.88 27.472 247 25.744 243.064ZM92.3575 272.44C78.3415 272.44 68.8375 260.92 68.8375 246.904C68.8375 232.984 80.2615 221.464 95.2375 221.464C110.598 221.464 121.638 232.216 121.638 246.904V271H105.318V267.448C102.246 270.616 97.9255 272.44 92.3575 272.44ZM95.2375 256.216C100.71 256.216 104.358 251.992 104.358 247C104.358 241.912 100.71 237.688 95.2375 237.688C89.7655 237.688 86.1175 241.912 86.1175 247C86.1175 251.992 89.7655 256.216 95.2375 256.216ZM154.266 294.52C142.362 294.52 133.722 289.24 129.306 279.832L143.61 272.152C145.146 275.416 148.026 278.776 153.978 278.776C160.218 278.776 164.346 274.84 164.826 267.928C162.522 269.944 158.874 271.48 153.402 271.48C140.058 271.48 129.306 261.208 129.306 246.808C129.306 232.888 140.73 221.56 155.706 221.56C171.066 221.56 182.106 232.216 182.106 246.904V265.912C182.106 283.192 170.106 294.52 154.266 294.52ZM155.418 255.256C160.602 255.256 164.538 251.704 164.538 246.424C164.538 241.24 160.602 237.784 155.418 237.784C150.33 237.784 146.298 241.24 146.298 246.424C146.298 251.704 150.33 255.256 155.418 255.256ZM215.983 255.64C221.551 255.64 223.951 250.552 223.951 244.504V223H241.231V246.616C241.231 260.728 232.975 272.44 215.983 272.44C198.991 272.44 190.735 260.728 190.735 246.616V223H208.015V244.504C208.015 250.552 210.415 255.64 215.983 255.64ZM271.514 272.44C257.498 272.44 247.994 260.92 247.994 246.904C247.994 232.984 259.418 221.464 274.394 221.464C289.754 221.464 300.794 232.216 300.794 246.904V271H284.474V267.448C281.402 270.616 277.082 272.44 271.514 272.44ZM274.394 256.216C279.866 256.216 283.514 251.992 283.514 247C283.514 241.912 279.866 237.688 274.394 237.688C268.922 237.688 265.274 241.912 265.274 247C265.274 251.992 268.922 256.216 274.394 256.216ZM327.663 271H310.383V244.408C310.383 231.64 317.679 221.464 333.327 221.464C336.591 221.464 340.143 222.04 342.543 223.096V239.704C340.239 238.456 337.359 237.784 334.959 237.784C330.447 237.784 327.663 240.376 327.663 244.984V271ZM373.78 272.344C358.42 272.344 346.9 262.168 346.9 246.424C346.9 232.6 357.268 221.08 372.436 221.08C388.18 221.08 396.916 232.792 396.916 245.656V249.976H363.508C364.66 254.776 368.308 257.656 373.588 257.656C378.196 257.656 381.844 255.16 383.572 251.416L396.82 258.04C392.692 266.968 384.532 272.344 373.78 272.344ZM364.276 241.048H379.732C378.964 238.36 376.276 235.864 372.244 235.864C368.116 235.864 365.332 238.264 364.276 241.048ZM432.803 272.536C417.155 272.536 409.859 263.32 409.859 250.552V237.4H401.699V223H409.859V211H427.139V223H442.883V237.4H427.139V249.976C427.139 254.584 429.923 257.176 434.435 257.176C436.835 257.176 440.579 256.504 442.883 255.256V270.52C440.483 271.864 436.067 272.536 432.803 272.536ZM475.499 272.344C460.139 272.344 448.619 262.168 448.619 246.424C448.619 232.6 458.987 221.08 474.155 221.08C489.899 221.08 498.635 232.792 498.635 245.656V249.976H465.227C466.379 254.776 470.027 257.656 475.307 257.656C479.915 257.656 483.563 255.16 485.291 251.416L498.539 258.04C494.411 266.968 486.251 272.344 475.499 272.344ZM465.995 241.048H481.451C480.683 238.36 477.995 235.864 473.963 235.864C469.835 235.864 467.051 238.264 465.995 241.048ZM531.738 272.344C516.762 272.536 505.338 260.824 505.338 246.904C505.338 232.984 516.762 221.368 531.738 221.56C541.338 221.656 550.17 225.976 554.586 235.864L540.282 243.544C538.746 240.28 535.674 237.784 531.738 237.784C526.266 237.784 522.618 241.816 522.618 246.904C522.618 251.992 526.266 256.12 531.738 256.12C535.674 256.12 538.746 253.624 540.282 250.36L554.586 258.04C550.17 267.928 541.338 272.248 531.738 272.344ZM580.551 271H563.271V200.92H580.551V224.44C583.815 222.616 587.751 221.56 592.071 221.56C607.143 221.56 614.631 230.68 614.631 246.136V271L597.351 270.904V247.96C597.351 242.584 594.471 237.784 589.287 237.784C583.815 237.784 580.551 242.008 580.551 247.96V271Z"/>
</mask>
<path d="M25.744 243.064L10 206.2H29.104L41.68 237.688L54.064 206.2H73.168L57.424 243.064C55.792 246.808 53.392 249.688 50.608 251.608V271H32.848V251.8C29.968 249.88 27.472 247 25.744 243.064ZM92.3575 272.44C78.3415 272.44 68.8375 260.92 68.8375 246.904C68.8375 232.984 80.2615 221.464 95.2375 221.464C110.598 221.464 121.638 232.216 121.638 246.904V271H105.318V267.448C102.246 270.616 97.9255 272.44 92.3575 272.44ZM95.2375 256.216C100.71 256.216 104.358 251.992 104.358 247C104.358 241.912 100.71 237.688 95.2375 237.688C89.7655 237.688 86.1175 241.912 86.1175 247C86.1175 251.992 89.7655 256.216 95.2375 256.216ZM154.266 294.52C142.362 294.52 133.722 289.24 129.306 279.832L143.61 272.152C145.146 275.416 148.026 278.776 153.978 278.776C160.218 278.776 164.346 274.84 164.826 267.928C162.522 269.944 158.874 271.48 153.402 271.48C140.058 271.48 129.306 261.208 129.306 246.808C129.306 232.888 140.73 221.56 155.706 221.56C171.066 221.56 182.106 232.216 182.106 246.904V265.912C182.106 283.192 170.106 294.52 154.266 294.52ZM155.418 255.256C160.602 255.256 164.538 251.704 164.538 246.424C164.538 241.24 160.602 237.784 155.418 237.784C150.33 237.784 146.298 241.24 146.298 246.424C146.298 251.704 150.33 255.256 155.418 255.256ZM215.983 255.64C221.551 255.64 223.951 250.552 223.951 244.504V223H241.231V246.616C241.231 260.728 232.975 272.44 215.983 272.44C198.991 272.44 190.735 260.728 190.735 246.616V223H208.015V244.504C208.015 250.552 210.415 255.64 215.983 255.64ZM271.514 272.44C257.498 272.44 247.994 260.92 247.994 246.904C247.994 232.984 259.418 221.464 274.394 221.464C289.754 221.464 300.794 232.216 300.794 246.904V271H284.474V267.448C281.402 270.616 277.082 272.44 271.514 272.44ZM274.394 256.216C279.866 256.216 283.514 251.992 283.514 247C283.514 241.912 279.866 237.688 274.394 237.688C268.922 237.688 265.274 241.912 265.274 247C265.274 251.992 268.922 256.216 274.394 256.216ZM327.663 271H310.383V244.408C310.383 231.64 317.679 221.464 333.327 221.464C336.591 221.464 340.143 222.04 342.543 223.096V239.704C340.239 238.456 337.359 237.784 334.959 237.784C330.447 237.784 327.663 240.376 327.663 244.984V271ZM373.78 272.344C358.42 272.344 346.9 262.168 346.9 246.424C346.9 232.6 357.268 221.08 372.436 221.08C388.18 221.08 396.916 232.792 396.916 245.656V249.976H363.508C364.66 254.776 368.308 257.656 373.588 257.656C378.196 257.656 381.844 255.16 383.572 251.416L396.82 258.04C392.692 266.968 384.532 272.344 373.78 272.344ZM364.276 241.048H379.732C378.964 238.36 376.276 235.864 372.244 235.864C368.116 235.864 365.332 238.264 364.276 241.048ZM432.803 272.536C417.155 272.536 409.859 263.32 409.859 250.552V237.4H401.699V223H409.859V211H427.139V223H442.883V237.4H427.139V249.976C427.139 254.584 429.923 257.176 434.435 257.176C436.835 257.176 440.579 256.504 442.883 255.256V270.52C440.483 271.864 436.067 272.536 432.803 272.536ZM475.499 272.344C460.139 272.344 448.619 262.168 448.619 246.424C448.619 232.6 458.987 221.08 474.155 221.08C489.899 221.08 498.635 232.792 498.635 245.656V249.976H465.227C466.379 254.776 470.027 257.656 475.307 257.656C479.915 257.656 483.563 255.16 485.291 251.416L498.539 258.04C494.411 266.968 486.251 272.344 475.499 272.344ZM465.995 241.048H481.451C480.683 238.36 477.995 235.864 473.963 235.864C469.835 235.864 467.051 238.264 465.995 241.048ZM531.738 272.344C516.762 272.536 505.338 260.824 505.338 246.904C505.338 232.984 516.762 221.368 531.738 221.56C541.338 221.656 550.17 225.976 554.586 235.864L540.282 243.544C538.746 240.28 535.674 237.784 531.738 237.784C526.266 237.784 522.618 241.816 522.618 246.904C522.618 251.992 526.266 256.12 531.738 256.12C535.674 256.12 538.746 253.624 540.282 250.36L554.586 258.04C550.17 267.928 541.338 272.248 531.738 272.344ZM580.551 271H563.271V200.92H580.551V224.44C583.815 222.616 587.751 221.56 592.071 221.56C607.143 221.56 614.631 230.68 614.631 246.136V271L597.351 270.904V247.96C597.351 242.584 594.471 237.784 589.287 237.784C583.815 237.784 580.551 242.008 580.551 247.96V271Z" fill="#E28A3F"/>
<path d="M25.744 243.064L16.5476 246.992C16.5608 247.022 16.5741 247.053 16.5876 247.084L25.744 243.064ZM10 206.2V196.2C6.64083 196.2 3.50606 197.887 1.65509 200.69C-0.195886 203.493 -0.515733 207.038 0.803637 210.128L10 206.2ZM29.104 206.2L38.3908 202.491C36.8734 198.692 33.195 196.2 29.104 196.2V206.2ZM41.68 237.688L32.3933 241.397C33.9142 245.205 37.6058 247.699 41.7064 247.688C45.8069 247.677 49.4853 245.164 50.9862 241.348L41.68 237.688ZM54.064 206.2V196.2C49.9538 196.2 46.2622 198.715 44.7579 202.54L54.064 206.2ZM73.168 206.2L82.3644 210.128C83.6838 207.038 83.364 203.493 81.513 200.69C79.662 197.887 76.5272 196.2 73.168 196.2V206.2ZM57.424 243.064L66.591 247.06C66.6009 247.037 66.6107 247.014 66.6204 246.992L57.424 243.064ZM50.608 251.608L44.9307 243.376C42.2242 245.242 40.608 248.32 40.608 251.608H50.608ZM50.608 271V281C56.1309 281 60.608 276.523 60.608 271H50.608ZM32.848 271H22.848C22.848 276.523 27.3252 281 32.848 281V271ZM32.848 251.8H42.848C42.848 248.456 41.177 245.334 38.395 243.479L32.848 251.8ZM25.744 243.064L34.9404 239.136L19.1964 202.272L10 206.2L0.803637 210.128L16.5476 246.992L25.744 243.064ZM10 206.2V216.2H29.104V206.2V196.2H10V206.2ZM29.104 206.2L19.8173 209.909L32.3933 241.397L41.68 237.688L50.9668 233.979L38.3908 202.491L29.104 206.2ZM41.68 237.688L50.9862 241.348L63.3702 209.86L54.064 206.2L44.7579 202.54L32.3739 234.028L41.68 237.688ZM54.064 206.2V216.2H73.168V206.2V196.2H54.064V206.2ZM73.168 206.2L63.9716 202.272L48.2276 239.136L57.424 243.064L66.6204 246.992L82.3644 210.128L73.168 206.2ZM57.424 243.064L48.2571 239.068C47.3127 241.235 46.0645 242.594 44.9307 243.376L50.608 251.608L56.2854 259.84C60.7196 256.782 64.2713 252.381 66.591 247.06L57.424 243.064ZM50.608 251.608H40.608V271H50.608H60.608V251.608H50.608ZM50.608 271V261H32.848V271V281H50.608V271ZM32.848 271H42.848V251.8H32.848H22.848V271H32.848ZM32.848 251.8L38.395 243.479C37.1907 242.677 35.9036 241.329 34.9005 239.044L25.744 243.064L16.5876 247.084C19.0405 252.671 22.7454 257.083 27.301 260.12L32.848 251.8ZM121.638 271V281C127.16 281 131.638 276.523 131.638 271H121.638ZM105.318 271H95.3175C95.3175 276.523 99.7947 281 105.318 281V271ZM105.318 267.448H115.318C115.318 263.375 112.848 259.71 109.073 258.18C105.299 256.65 100.974 257.563 98.1385 260.487L105.318 267.448ZM92.3575 272.44V262.44C84.9163 262.44 78.8375 256.511 78.8375 246.904H68.8375H58.8375C58.8375 265.329 71.7667 282.44 92.3575 282.44V272.44ZM68.8375 246.904H78.8375C78.8375 238.723 85.5653 231.464 95.2375 231.464V221.464V211.464C74.9578 211.464 58.8375 227.245 58.8375 246.904H68.8375ZM95.2375 221.464V231.464C105.397 231.464 111.638 238.056 111.638 246.904H121.638H131.638C131.638 226.376 115.798 211.464 95.2375 211.464V221.464ZM121.638 246.904H111.638V271H121.638H131.638V246.904H121.638ZM121.638 271V261H105.318V271V281H121.638V271ZM105.318 271H115.318V267.448H105.318H95.3175V271H105.318ZM105.318 267.448L98.1385 260.487C97.1915 261.463 95.5878 262.44 92.3575 262.44V272.44V282.44C100.263 282.44 107.3 279.769 112.497 274.409L105.318 267.448ZM95.2375 256.216V266.216C106.71 266.216 114.358 257.025 114.358 247H104.358H94.3575C94.3575 247.057 94.3459 246.859 94.5995 246.593C94.7254 246.46 94.8835 246.35 95.0483 246.28C95.2178 246.207 95.3024 246.216 95.2375 246.216V256.216ZM104.358 247H114.358C114.358 236.947 106.775 227.688 95.2375 227.688V237.688V247.688C95.3024 247.688 95.2137 247.697 95.0378 247.622C94.8661 247.548 94.703 247.433 94.5751 247.298C94.3145 247.021 94.3575 246.848 94.3575 247H104.358ZM95.2375 237.688V227.688C83.7004 227.688 76.1175 236.947 76.1175 247H86.1175H96.1175C96.1175 246.848 96.1606 247.021 95.9 247.298C95.7721 247.433 95.609 247.548 95.4372 247.622C95.2614 247.697 95.1726 247.688 95.2375 247.688V237.688ZM86.1175 247H76.1175C76.1175 257.025 83.7655 266.216 95.2375 266.216V256.216V246.216C95.1727 246.216 95.2573 246.207 95.4267 246.28C95.5915 246.35 95.7497 246.46 95.8755 246.593C96.1292 246.859 96.1175 247.057 96.1175 247H86.1175ZM129.306 279.832L124.576 271.022C119.894 273.535 117.996 279.271 120.254 284.081L129.306 279.832ZM143.61 272.152L152.658 267.894C151.49 265.411 149.353 263.518 146.747 262.657C144.142 261.796 141.297 262.044 138.88 263.342L143.61 272.152ZM164.826 267.928L174.802 268.621C175.083 264.581 172.899 260.771 169.272 258.97C165.644 257.17 161.289 257.736 158.241 260.402L164.826 267.928ZM154.266 294.52V284.52C145.758 284.52 140.932 281.066 138.359 275.583L129.306 279.832L120.254 284.081C126.512 297.414 138.966 304.52 154.266 304.52V294.52ZM129.306 279.832L134.037 288.642L148.341 280.962L143.61 272.152L138.88 263.342L124.576 271.022L129.306 279.832ZM143.61 272.152L134.562 276.41C135.768 278.973 137.761 282.143 141.12 284.674C144.62 287.312 148.972 288.776 153.978 288.776V278.776V268.776C153.442 268.776 153.193 268.702 153.142 268.686C153.098 268.672 153.122 268.675 153.157 268.702C153.203 268.737 152.988 268.595 152.658 267.894L143.61 272.152ZM153.978 278.776V288.776C159.269 288.776 164.541 287.055 168.588 283.061C172.577 279.122 174.435 273.906 174.802 268.621L164.826 267.928L154.85 267.235C154.737 268.862 154.291 269.07 154.537 268.827C154.635 268.731 154.728 268.689 154.727 268.69C154.709 268.697 154.488 268.776 153.978 268.776V278.776ZM164.826 267.928L158.241 260.402C158.107 260.52 156.956 261.48 153.402 261.48V271.48V281.48C160.793 281.48 166.938 279.368 171.411 275.454L164.826 267.928ZM153.402 271.48V261.48C145.607 261.48 139.306 255.711 139.306 246.808H129.306H119.306C119.306 266.705 134.51 281.48 153.402 281.48V271.48ZM129.306 246.808H139.306C139.306 238.724 145.934 231.56 155.706 231.56V221.56V211.56C135.526 211.56 119.306 227.052 119.306 246.808H129.306ZM155.706 221.56V231.56C165.917 231.56 172.106 238.105 172.106 246.904H182.106H192.106C192.106 226.327 176.216 211.56 155.706 211.56V221.56ZM182.106 246.904H172.106V265.912H182.106H192.106V246.904H182.106ZM182.106 265.912H172.106C172.106 272.163 169.981 276.692 167.047 279.633C164.094 282.593 159.752 284.52 154.266 284.52V294.52V304.52C164.621 304.52 174.199 300.783 181.206 293.759C188.232 286.716 192.106 276.941 192.106 265.912H182.106ZM155.418 255.256V265.256C165.621 265.256 174.538 257.718 174.538 246.424H164.538H154.538C154.538 246.489 154.529 246.382 154.617 246.172C154.705 245.961 154.851 245.744 155.04 245.565C155.447 245.179 155.71 245.256 155.418 245.256V255.256ZM164.538 246.424H174.538C174.538 235.012 165.392 227.784 155.418 227.784V237.784V247.784C155.788 247.784 155.55 247.888 155.126 247.496C154.924 247.308 154.755 247.069 154.647 246.817C154.539 246.564 154.538 246.408 154.538 246.424H164.538ZM155.418 237.784V227.784C145.612 227.784 136.298 234.946 136.298 246.424H146.298H156.298C156.298 246.441 156.291 246.616 156.18 246.872C156.07 247.125 155.904 247.35 155.72 247.52C155.342 247.868 155.132 247.784 155.418 247.784V237.784ZM146.298 246.424H136.298C136.298 257.785 145.383 265.256 155.418 265.256V255.256V245.256C155.21 245.256 155.445 245.2 155.806 245.54C155.978 245.702 156.12 245.905 156.21 246.117C156.301 246.331 156.298 246.456 156.298 246.424H146.298ZM223.951 223V213C218.428 213 213.951 217.477 213.951 223H223.951ZM241.231 223H251.231C251.231 217.477 246.754 213 241.231 213V223ZM190.735 223V213C185.212 213 180.735 217.477 180.735 223H190.735ZM208.015 223H218.015C218.015 217.477 213.538 213 208.015 213V223ZM215.983 255.64V265.64C222.4 265.64 227.47 262.437 230.481 257.725C233.168 253.52 233.951 248.626 233.951 244.504H223.951H213.951C213.951 245.375 213.863 246.046 213.754 246.508C213.643 246.98 213.547 247.082 213.629 246.955C213.731 246.794 214.044 246.392 214.645 246.051C215.268 245.698 215.799 245.64 215.983 245.64V255.64ZM223.951 244.504H233.951V223H223.951H213.951V244.504H223.951ZM223.951 223V233H241.231V223V213H223.951V223ZM241.231 223H231.231V246.616H241.231H251.231V223H241.231ZM241.231 246.616H231.231C231.231 251.802 229.719 255.696 227.519 258.161C225.475 260.451 222.023 262.44 215.983 262.44V272.44V282.44C226.935 282.44 236.107 278.573 242.439 271.479C248.615 264.56 251.231 255.542 251.231 246.616H241.231ZM215.983 272.44V262.44C209.943 262.44 206.491 260.451 204.447 258.161C202.247 255.696 200.735 251.802 200.735 246.616H190.735H180.735C180.735 255.542 183.351 264.56 189.527 271.479C195.859 278.573 205.031 282.44 215.983 282.44V272.44ZM190.735 246.616H200.735V223H190.735H180.735V246.616H190.735ZM190.735 223V233H208.015V223V213H190.735V223ZM208.015 223H198.015V244.504H208.015H218.015V223H208.015ZM208.015 244.504H198.015C198.015 248.626 198.798 253.52 201.485 257.725C204.496 262.437 209.566 265.64 215.983 265.64V255.64V245.64C216.167 245.64 216.698 245.698 217.321 246.051C217.922 246.392 218.235 246.794 218.337 246.955C218.419 247.082 218.323 246.98 218.212 246.508C218.103 246.046 218.015 245.375 218.015 244.504H208.015ZM300.794 271V281C306.317 281 310.794 276.523 310.794 271H300.794ZM284.474 271H274.474C274.474 276.523 278.951 281 284.474 281V271ZM284.474 267.448H294.474C294.474 263.375 292.004 259.71 288.229 258.18C284.455 256.65 280.13 257.563 277.295 260.487L284.474 267.448ZM271.514 272.44V262.44C264.073 262.44 257.994 256.511 257.994 246.904H247.994H237.994C237.994 265.329 250.923 282.44 271.514 282.44V272.44ZM247.994 246.904H257.994C257.994 238.723 264.722 231.464 274.394 231.464V221.464V211.464C254.114 211.464 237.994 227.245 237.994 246.904H247.994ZM274.394 221.464V231.464C284.553 231.464 290.794 238.056 290.794 246.904H300.794H310.794C310.794 226.376 294.954 211.464 274.394 211.464V221.464ZM300.794 246.904H290.794V271H300.794H310.794V246.904H300.794ZM300.794 271V261H284.474V271V281H300.794V271ZM284.474 271H294.474V267.448H284.474H274.474V271H284.474ZM284.474 267.448L277.295 260.487C276.348 261.463 274.744 262.44 271.514 262.44V272.44V282.44C279.42 282.44 286.456 279.769 291.653 274.409L284.474 267.448ZM274.394 256.216V266.216C285.866 266.216 293.514 257.025 293.514 247H283.514H273.514C273.514 247.057 273.502 246.859 273.756 246.593C273.882 246.46 274.04 246.35 274.205 246.28C274.374 246.207 274.459 246.216 274.394 246.216V256.216ZM283.514 247H293.514C293.514 236.947 285.931 227.688 274.394 227.688V237.688V247.688C274.459 247.688 274.37 247.697 274.194 247.622C274.022 247.548 273.859 247.433 273.731 247.298C273.471 247.021 273.514 246.848 273.514 247H283.514ZM274.394 237.688V227.688C262.857 227.688 255.274 236.947 255.274 247H265.274H275.274C275.274 246.848 275.317 247.021 275.056 247.298C274.928 247.433 274.765 247.548 274.593 247.622C274.418 247.697 274.329 247.688 274.394 247.688V237.688ZM265.274 247H255.274C255.274 257.025 262.922 266.216 274.394 266.216V256.216V246.216C274.329 246.216 274.414 246.207 274.583 246.28C274.748 246.35 274.906 246.46 275.032 246.593C275.285 246.859 275.274 247.057 275.274 247H265.274ZM327.663 271V281C333.185 281 337.663 276.523 337.663 271H327.663ZM310.383 271H300.383C300.383 276.523 304.86 281 310.383 281V271ZM342.543 223.096H352.543C352.543 219.131 350.199 215.54 346.57 213.943L342.543 223.096ZM342.543 239.704L337.78 248.497C340.878 250.175 344.632 250.099 347.66 248.296C350.688 246.492 352.543 243.228 352.543 239.704H342.543ZM327.663 271V261H310.383V271V281H327.663V271ZM310.383 271H320.383V244.408H310.383H300.383V271H310.383ZM310.383 244.408H320.383C320.383 239.849 321.677 236.747 323.371 234.891C324.927 233.187 327.782 231.464 333.327 231.464V221.464V211.464C323.223 211.464 314.606 214.829 308.602 221.405C302.737 227.829 300.383 236.199 300.383 244.408H310.383ZM333.327 221.464V231.464C335.736 231.464 337.795 231.932 338.515 232.249L342.543 223.096L346.57 213.943C342.49 212.148 337.445 211.464 333.327 211.464V221.464ZM342.543 223.096H332.543V239.704H342.543H352.543V223.096H342.543ZM342.543 239.704L347.305 230.911C343.474 228.836 338.947 227.784 334.959 227.784V237.784V247.784C335.77 247.784 337.003 248.076 337.78 248.497L342.543 239.704ZM334.959 237.784V227.784C330.819 227.784 326.236 229.001 322.651 232.483C319.022 236.009 317.663 240.644 317.663 244.984H327.663H337.663C337.663 244.716 337.695 245.751 336.586 246.829C335.521 247.863 334.586 247.784 334.959 247.784V237.784ZM327.663 244.984H317.663V271H327.663H337.663V244.984H327.663ZM396.916 249.976V259.976C402.439 259.976 406.916 255.499 406.916 249.976H396.916ZM363.508 249.976V239.976C360.445 239.976 357.551 241.38 355.655 243.785C353.759 246.19 353.069 249.332 353.784 252.31L363.508 249.976ZM383.572 251.416L388.044 242.472C385.624 241.261 382.816 241.084 380.262 241.98C377.708 242.876 375.627 244.768 374.492 247.225L383.572 251.416ZM396.82 258.04L405.897 262.237C408.165 257.332 406.126 251.512 401.292 249.096L396.82 258.04ZM364.276 241.048L354.926 237.501C353.761 240.574 354.179 244.024 356.046 246.728C357.913 249.433 360.99 251.048 364.276 251.048V241.048ZM379.732 241.048V251.048C382.87 251.048 385.826 249.575 387.716 247.07C389.605 244.565 390.209 241.318 389.347 238.301L379.732 241.048ZM373.78 272.344V262.344C368.313 262.344 364.146 260.555 361.429 258.002C358.779 255.511 356.9 251.734 356.9 246.424H346.9H336.9C336.9 256.858 340.781 266.041 347.731 272.574C354.614 279.045 363.887 282.344 373.78 282.344V272.344ZM346.9 246.424H356.9C356.9 237.872 363.038 231.08 372.436 231.08V221.08V211.08C351.498 211.08 336.9 227.328 336.9 246.424H346.9ZM372.436 221.08V231.08C377.652 231.08 381.044 232.937 383.204 235.296C385.485 237.788 386.916 241.438 386.916 245.656H396.916H406.916C406.916 237.01 403.979 228.372 397.956 221.792C391.812 215.079 382.964 211.08 372.436 211.08V221.08ZM396.916 245.656H386.916V249.976H396.916H406.916V245.656H396.916ZM396.916 249.976V239.976H363.508V249.976V259.976H396.916V249.976ZM363.508 249.976L353.784 252.31C354.827 256.653 357.158 260.661 360.903 263.542C364.631 266.41 369.101 267.656 373.588 267.656V257.656V247.656C373.177 247.656 372.975 247.6 372.934 247.587C372.913 247.581 372.924 247.582 372.958 247.6C372.993 247.618 373.042 247.647 373.097 247.69C373.152 247.732 373.202 247.779 373.244 247.826C373.286 247.872 373.312 247.909 373.323 247.928C373.348 247.968 373.293 247.896 373.232 247.642L363.508 249.976ZM373.588 257.656V267.656C382.108 267.656 389.294 262.882 392.652 255.607L383.572 251.416L374.492 247.225C374.404 247.418 374.314 247.489 374.264 247.521C374.232 247.541 374.177 247.57 374.085 247.597C373.993 247.624 373.833 247.656 373.588 247.656V257.656ZM383.572 251.416L379.1 260.36L392.348 266.984L396.82 258.04L401.292 249.096L388.044 242.472L383.572 251.416ZM396.82 258.04L387.743 253.843C385.292 259.146 380.731 262.344 373.78 262.344V272.344V282.344C388.333 282.344 400.092 274.79 405.897 262.237L396.82 258.04ZM364.276 241.048V251.048H379.732V241.048V231.048H364.276V241.048ZM379.732 241.048L389.347 238.301C387.354 231.324 380.745 225.864 372.244 225.864V235.864V245.864C372.123 245.864 371.68 245.801 371.188 245.43C370.765 245.111 370.343 244.587 370.117 243.795L379.732 241.048ZM372.244 235.864V225.864C363.798 225.864 357.397 230.988 354.926 237.501L364.276 241.048L373.626 244.595C373.467 245.014 373.204 245.35 372.872 245.584C372.485 245.856 372.189 245.864 372.244 245.864V235.864ZM409.859 237.4H419.859C419.859 231.877 415.382 227.4 409.859 227.4V237.4ZM401.699 237.4H391.699C391.699 242.923 396.176 247.4 401.699 247.4V237.4ZM401.699 223V213C396.176 213 391.699 217.477 391.699 223H401.699ZM409.859 223V233C415.382 233 419.859 228.523 419.859 223H409.859ZM409.859 211V201C404.336 201 399.859 205.477 399.859 211H409.859ZM427.139 211H437.139C437.139 205.477 432.662 201 427.139 201V211ZM427.139 223H417.139C417.139 228.523 421.616 233 427.139 233V223ZM442.883 223H452.883C452.883 217.477 448.406 213 442.883 213V223ZM442.883 237.4V247.4C448.406 247.4 452.883 242.923 452.883 237.4H442.883ZM427.139 237.4V227.4C421.616 227.4 417.139 231.877 417.139 237.4H427.139ZM442.883 255.256H452.883C452.883 251.732 451.028 248.468 448 246.664C444.972 244.861 441.219 244.785 438.12 246.463L442.883 255.256ZM442.883 270.52L447.769 279.245C450.927 277.477 452.883 274.14 452.883 270.52H442.883ZM432.803 272.536V262.536C426.963 262.536 424.09 260.865 422.643 259.372C421.132 257.813 419.859 255.085 419.859 250.552H409.859H399.859C399.859 258.787 402.233 267.051 408.282 273.292C414.395 279.599 422.995 282.536 432.803 282.536V272.536ZM409.859 250.552H419.859V237.4H409.859H399.859V250.552H409.859ZM409.859 237.4V227.4H401.699V237.4V247.4H409.859V237.4ZM401.699 237.4H411.699V223H401.699H391.699V237.4H401.699ZM401.699 223V233H409.859V223V213H401.699V223ZM409.859 223H419.859V211H409.859H399.859V223H409.859ZM409.859 211V221H427.139V211V201H409.859V211ZM427.139 211H417.139V223H427.139H437.139V211H427.139ZM427.139 223V233H442.883V223V213H427.139V223ZM442.883 223H432.883V237.4H442.883H452.883V223H442.883ZM442.883 237.4V227.4H427.139V237.4V247.4H442.883V237.4ZM427.139 237.4H417.139V249.976H427.139H437.139V237.4H427.139ZM427.139 249.976H417.139C417.139 254.316 418.498 258.951 422.127 262.477C425.712 265.959 430.295 267.176 434.435 267.176V257.176V247.176C434.062 247.176 434.998 247.097 436.063 248.131C437.172 249.209 437.139 250.244 437.139 249.976H427.139ZM434.435 257.176V267.176C437.925 267.176 443.447 266.323 447.646 264.049L442.883 255.256L438.12 246.463C438.179 246.431 438.073 246.493 437.754 246.6C437.452 246.701 437.064 246.807 436.615 246.903C435.657 247.106 434.825 247.176 434.435 247.176V257.176ZM442.883 255.256H432.883V270.52H442.883H452.883V255.256H442.883ZM442.883 270.52L437.997 261.795C438.175 261.695 438.134 261.744 437.758 261.861C437.414 261.969 436.937 262.09 436.344 262.2C435.129 262.425 433.819 262.536 432.803 262.536V272.536V282.536C435.051 282.536 437.581 282.311 439.99 281.864C442.237 281.448 445.178 280.696 447.769 279.245L442.883 270.52ZM498.635 249.976V259.976C504.158 259.976 508.635 255.499 508.635 249.976H498.635ZM465.227 249.976V239.976C462.164 239.976 459.27 241.38 457.374 243.785C455.478 246.19 454.788 249.332 455.503 252.31L465.227 249.976ZM485.291 251.416L489.763 242.472C487.342 241.261 484.535 241.084 481.981 241.98C479.427 242.876 477.345 244.768 476.211 247.225L485.291 251.416ZM498.539 258.04L507.616 262.237C509.883 257.332 507.844 251.512 503.011 249.096L498.539 258.04ZM465.995 241.048L456.645 237.501C455.479 240.574 455.898 244.024 457.765 246.728C459.632 249.433 462.708 251.048 465.995 251.048V241.048ZM481.451 241.048V251.048C484.589 251.048 487.545 249.575 489.434 247.07C491.324 244.565 491.928 241.318 491.066 238.301L481.451 241.048ZM475.499 272.344V262.344C470.032 262.344 465.865 260.555 463.148 258.002C460.498 255.511 458.619 251.734 458.619 246.424H448.619H438.619C438.619 256.858 442.5 266.041 449.45 272.574C456.333 279.045 465.606 282.344 475.499 282.344V272.344ZM448.619 246.424H458.619C458.619 237.872 464.757 231.08 474.155 231.08V221.08V211.08C453.217 211.08 438.619 227.328 438.619 246.424H448.619ZM474.155 221.08V231.08C479.37 231.08 482.763 232.937 484.922 235.296C487.204 237.788 488.635 241.438 488.635 245.656H498.635H508.635C508.635 237.01 505.698 228.372 499.675 221.792C493.53 215.079 484.683 211.08 474.155 211.08V221.08ZM498.635 245.656H488.635V249.976H498.635H508.635V245.656H498.635ZM498.635 249.976V239.976H465.227V249.976V259.976H498.635V249.976ZM465.227 249.976L455.503 252.31C456.545 256.653 458.876 260.661 462.622 263.542C466.35 266.41 470.82 267.656 475.307 267.656V257.656V247.656C474.895 247.656 474.694 247.6 474.653 247.587C474.631 247.581 474.642 247.582 474.677 247.6C474.712 247.618 474.761 247.647 474.816 247.69C474.871 247.732 474.921 247.779 474.963 247.826C475.005 247.872 475.03 247.909 475.042 247.928C475.067 247.968 475.012 247.896 474.951 247.642L465.227 249.976ZM475.307 257.656V267.656C483.827 267.656 491.013 262.882 494.37 255.607L485.291 251.416L476.211 247.225C476.122 247.418 476.033 247.489 475.983 247.521C475.951 247.541 475.896 247.57 475.804 247.597C475.712 247.624 475.551 247.656 475.307 247.656V257.656ZM485.291 251.416L480.819 260.36L494.067 266.984L498.539 258.04L503.011 249.096L489.763 242.472L485.291 251.416ZM498.539 258.04L489.462 253.843C487.01 259.146 482.45 262.344 475.499 262.344V272.344V282.344C490.052 282.344 501.811 274.79 507.616 262.237L498.539 258.04ZM465.995 241.048V251.048H481.451V241.048V231.048H465.995V241.048ZM481.451 241.048L491.066 238.301C489.073 231.324 482.464 225.864 473.963 225.864V235.864V245.864C473.841 245.864 473.399 245.801 472.907 245.43C472.484 245.111 472.062 244.587 471.836 243.795L481.451 241.048ZM473.963 235.864V225.864C465.516 225.864 459.115 230.988 456.645 237.501L465.995 241.048L475.345 244.595C475.186 245.014 474.922 245.35 474.591 245.584C474.204 245.856 473.908 245.864 473.963 245.864V235.864ZM531.738 272.344L531.638 262.344C531.628 262.345 531.619 262.345 531.609 262.345L531.738 272.344ZM531.738 221.56L531.609 231.559C531.619 231.559 531.628 231.559 531.638 231.559L531.738 221.56ZM554.586 235.864L559.316 244.674C563.933 242.195 565.854 236.572 563.716 231.786L554.586 235.864ZM540.282 243.544L531.233 247.802C532.402 250.285 534.539 252.178 537.144 253.039C539.75 253.9 542.594 253.652 545.012 252.354L540.282 243.544ZM540.282 250.36L545.012 241.55C542.594 240.252 539.75 240.004 537.144 240.865C534.539 241.726 532.402 243.619 531.233 246.102L540.282 250.36ZM554.586 258.04L563.716 262.118C565.854 257.332 563.933 251.709 559.316 249.23L554.586 258.04ZM531.738 272.344L531.609 262.345C522.157 262.466 515.338 255.203 515.338 246.904H505.338H495.338C495.338 266.445 511.366 282.606 531.866 282.343L531.738 272.344ZM505.338 246.904H515.338C515.338 238.654 522.108 231.437 531.609 231.559L531.738 221.56L531.866 211.561C511.415 211.299 495.338 227.314 495.338 246.904H505.338ZM531.738 221.56L531.638 231.559C538.133 231.624 542.937 234.304 545.455 239.942L554.586 235.864L563.716 231.786C557.402 217.648 544.542 211.688 531.838 211.56L531.738 221.56ZM554.586 235.864L549.855 227.054L535.551 234.734L540.282 243.544L545.012 252.354L559.316 244.674L554.586 235.864ZM540.282 243.544L549.33 239.286C546.511 233.297 540.34 227.784 531.738 227.784V237.784V247.784C531.652 247.784 531.527 247.768 531.389 247.723C531.257 247.68 531.165 247.626 531.116 247.591C531.071 247.559 531.073 247.551 531.104 247.589C531.137 247.629 531.185 247.7 531.233 247.802L540.282 243.544ZM531.738 237.784V227.784C520.465 227.784 512.618 236.575 512.618 246.904H522.618H532.618C532.618 246.777 532.641 247.051 532.301 247.402C532.143 247.564 531.965 247.677 531.81 247.741C531.655 247.805 531.609 247.784 531.738 247.784V237.784ZM522.618 246.904H512.618C512.618 257.094 520.331 266.12 531.738 266.12V256.12V246.12C531.641 246.12 531.708 246.105 531.874 246.175C532.038 246.243 532.208 246.358 532.351 246.507C532.651 246.82 532.618 247.044 532.618 246.904H522.618ZM531.738 256.12V266.12C540.34 266.12 546.511 260.607 549.33 254.618L540.282 250.36L531.233 246.102C531.185 246.204 531.137 246.275 531.104 246.315C531.073 246.353 531.071 246.345 531.116 246.313C531.165 246.278 531.257 246.224 531.389 246.181C531.527 246.136 531.652 246.12 531.738 246.12V256.12ZM540.282 250.36L535.551 259.17L549.855 266.85L554.586 258.04L559.316 249.23L545.012 241.55L540.282 250.36ZM554.586 258.04L545.455 253.962C542.937 259.6 538.133 262.28 531.638 262.344L531.738 272.344L531.838 282.343C544.542 282.216 557.402 276.256 563.716 262.118L554.586 258.04ZM580.551 271V281C586.074 281 590.551 276.523 590.551 271H580.551ZM563.271 271H553.271C553.271 276.523 557.748 281 563.271 281V271ZM563.271 200.92V190.92C557.748 190.92 553.271 195.397 553.271 200.92H563.271ZM580.551 200.92H590.551C590.551 195.397 586.074 190.92 580.551 190.92V200.92ZM580.551 224.44H570.551C570.551 227.988 572.431 231.27 575.491 233.065C578.551 234.86 582.333 234.9 585.43 233.169L580.551 224.44ZM614.631 271L614.576 281C617.238 281.015 619.795 279.968 621.683 278.091C623.57 276.214 624.631 273.662 624.631 271H614.631ZM597.351 270.904H587.351C587.351 276.405 591.795 280.873 597.296 280.904L597.351 270.904ZM580.551 271V261H563.271V271V281H580.551V271ZM563.271 271H573.271V200.92H563.271H553.271V271H563.271ZM563.271 200.92V210.92H580.551V200.92V190.92H563.271V200.92ZM580.551 200.92H570.551V224.44H580.551H590.551V200.92H580.551ZM580.551 224.44L585.43 233.169C587.138 232.215 589.383 231.56 592.071 231.56V221.56V211.56C586.119 211.56 580.493 213.017 575.673 215.711L580.551 224.44ZM592.071 221.56V231.56C597.538 231.56 600.145 233.144 601.54 234.708C603.106 236.464 604.631 239.875 604.631 246.136H614.631H624.631C624.631 236.941 622.412 228.064 616.467 221.396C610.349 214.536 601.677 211.56 592.071 211.56V221.56ZM614.631 246.136H604.631V271H614.631H624.631V246.136H614.631ZM614.631 271L614.687 261L597.407 260.904L597.351 270.904L597.296 280.904L614.576 281L614.631 271ZM597.351 270.904H607.351V247.96H597.351H587.351V270.904H597.351ZM597.351 247.96H607.351C607.351 243.626 606.211 238.888 603.337 234.956C600.276 230.766 595.379 227.784 589.287 227.784V237.784V247.784C588.99 247.784 588.516 247.702 588.02 247.437C587.549 247.186 587.29 246.893 587.189 246.756C587.1 246.634 587.148 246.655 587.219 246.896C587.287 247.133 587.351 247.495 587.351 247.96H597.351ZM589.287 237.784V227.784C583.752 227.784 578.69 230.032 575.185 234.238C571.845 238.246 570.551 243.242 570.551 247.96H580.551H590.551C590.551 246.726 590.889 246.634 590.55 247.042C590.368 247.259 590.091 247.487 589.753 247.64C589.421 247.791 589.224 247.784 589.287 247.784V237.784ZM580.551 247.96H570.551V271H580.551H590.551V247.96H580.551Z" fill="white" mask="url(#path-2-outside-1_1_2)"/>
</svg>
